<svg preserveAspectRatio="none" width="100%" height="100%" overflow="visible" style="display: block;" viewBox="0 0 36 36" fill="none" xmlns="http://www.w3.org/2000/svg">
<g id="Icon">
<path id="Vector" d="M18 0C8.06 0 0 8.06 0 18C0 27.94 8.06 36 18 36C27.94 36 36 27.94 36 18C36 8.06 27.94 0 18 0Z" fill="var(--fill-0, #81246C)"/>
<path id="Vector_2" d="M25.72 29.35C25.72 23.89 25.72 22.12 25.72 16.66C25.72 15.29 25.72 13.91 25.71 12.54C25.71 12.36 25.69 12.17 25.64 11.99C25.45 11.36 25.19 10.76 24.76 10.25C24.19 9.57 23.48 9.13 22.65 8.85C22.26 8.72 21.85 8.71 21.45 8.68C21.08 8.65 20.85 8.41 20.84 8.03C20.83 7.67 20.84 7.31 20.84 6.95C20.84 6.84 20.88 6.79 20.98 6.74C21.31 6.57 21.52 6.32 21.58 5.94C21.67 5.43 21.37 4.75 20.71 4.7C20.35 4.67 19.99 4.62 19.63 4.61C19.09 4.59 18.55 4.61 18.02 4.61C17.34 4.61 16.65 4.61 15.97 4.61C15.97 4.61 15.97 4.62 15.97 4.63C16.05 4.63 16.12 4.64 16.2 4.65C16.2 4.66 16.2 4.67 16.2 4.68C16.15 4.68 16.1 4.68 16.05 4.68C15.84 4.68 15.63 4.68 15.42 4.69C15.17 4.7 14.95 4.79 14.76 4.97C14.57 5.15 14.55 5.4 14.48 5.63C14.38 5.96 14.53 6.21 14.71 6.45C14.78 6.54 14.86 6.64 14.97 6.69C15.19 6.79 15.22 6.81 15.21 7.04C15.21 7.37 15.21 7.7 15.19 8.03C15.18 8.43 14.93 8.67 14.53 8.67C14.15 8.67 13.78 8.69 13.43 8.84C13.1 8.97 12.75 9.05 12.44 9.24C11.86 9.61 11.34 10.04 10.98 10.63C10.56 11.33 10.29 12.08 10.29 12.92C10.29 19.92 10.29 23.24 10.29 30.24C10.29 30.47 10.34 30.68 10.5 30.86C10.77 31.18 11.06 31.45 11.53 31.38C11.53 31.38 11.54 31.38 11.55 31.38C12.58 31.38 13.61 31.38 14.65 31.38C17.91 31.38 21.18 31.38 24.44 31.38C24.72 31.38 24.99 31.38 25.23 31.19C25.53 30.96 25.76 30.7 25.75 30.29C25.75 29.97 25.75 29.65 25.75 29.33L25.72 29.35ZM14.53 21.13C14.53 20.43 15.1 19.86 15.8 19.86C16.5 19.86 17.07 20.43 17.07 21.13C17.07 21.83 16.5 22.4 15.8 22.4C15.1 22.4 14.53 21.83 14.53 21.13ZM16.23 24.1C16.23 23.4 16.8 22.83 17.5 22.83C18.2 22.83 18.77 23.4 18.77 24.1C18.77 24.8 18.2 25.37 17.5 25.37C16.8 25.37 16.23 24.8 16.23 24.1ZM19.6 18.33C19.64 18.57 19.64 18.82 19.64 19.06H18.79C18.79 18.56 18.73 18.07 18.6 17.59C18.45 17.06 18.2 16.64 17.87 16.36C17.69 16.21 17.67 15.94 17.82 15.76C17.92 15.65 18 15.62 18.15 15.61C18.25 15.61 18.34 15.65 18.42 15.71C18.69 15.93 18.9 16.21 19.08 16.51C19.51 16.01 19.93 15.72 20.42 15.63C20.56 15.61 20.66 15.61 20.76 15.6C21.3 15.64 21.7 15.83 22.08 16.05C22.23 16.14 22.36 16.25 22.49 16.35C22.63 16.47 22.64 16.48 22.65 16.49C22.78 16.62 22.81 16.81 22.74 16.98C22.67 17.11 22.64 17.17 22.6 17.23C22.49 17.41 22.36 17.59 22.22 17.75C21.85 18.17 21.43 18.47 20.94 18.55C20.44 18.63 20.03 18.51 19.62 18.31L19.6 18.33ZM20.48 21.13C20.48 21.83 19.91 22.4 19.21 22.4C18.51 22.4 17.94 21.83 17.94 21.13C17.94 20.43 18.51 19.86 19.21 19.86C19.91 19.86 20.48 20.43 20.48 21.13ZM19.2 28.35C18.5 28.35 17.93 27.78 17.93 27.08C17.93 26.38 18.5 25.81 19.2 25.81C19.9 25.81 20.47 26.38 20.47 27.08C20.47 27.78 19.9 28.35 19.2 28.35ZM20.9 25.38C20.2 25.38 19.63 24.81 19.63 24.11C19.63 23.41 20.2 22.84 20.9 22.84C21.6 22.84 22.17 23.41 22.17 24.11C22.17 24.81 21.6 25.38 20.9 25.38ZM22.6 22.4C21.9 22.4 21.33 21.83 21.33 21.13C21.33 20.43 21.9 19.86 22.6 19.86C23.3 19.86 23.87 20.43 23.87 21.13C23.87 21.83 23.3 22.4 22.6 22.4ZM24.25 14.94C20.9 14.94 17.55 14.94 14.2 14.95C13.81 14.95 13.42 14.95 13.03 14.95C12.91 14.95 12.84 15 12.84 15.12C12.84 15.25 12.84 15.38 12.84 15.51C12.84 16.39 12.82 17.27 12.82 18.15C12.82 23.15 12.82 24.46 12.82 29.45C12.82 29.6 12.82 29.74 12.82 29.89C12.82 29.98 12.8 30.02 12.7 30.02C12.38 30.02 12.06 30.02 11.74 30.02C11.66 30.02 11.62 29.99 11.63 29.91C11.63 29.86 11.63 29.8 11.63 29.75C11.63 23.17 11.63 20.28 11.63 13.7C11.63 13.43 11.63 13.17 11.63 12.9C11.69 11.78 12.21 10.95 13.18 10.42C13.65 10.16 14.16 10.09 14.69 10.04C15.24 9.99 15.74 9.78 16.1 9.31C16.4 8.9 16.54 8.46 16.55 7.96C16.55 7.66 16.55 7.35 16.55 7.05C16.55 6.96 16.58 6.92 16.67 6.92C17.09 6.92 17.51 6.92 17.92 6.92C18.37 6.92 18.82 6.92 19.27 6.92C19.4 6.92 19.45 6.96 19.45 7.1C19.44 7.41 19.45 7.72 19.44 8.03C19.42 8.53 19.6 8.97 19.91 9.34C20.11 9.58 20.32 9.88 20.7 9.89C20.73 9.89 20.77 9.95 20.8 9.99C20.8 10 20.79 10.02 20.78 10.03C20.95 10.03 21.13 10.06 21.3 10.05C21.74 10.03 22.16 10.13 22.55 10.29C22.99 10.47 23.41 10.73 23.68 11.15C23.82 11.37 23.98 11.57 24.09 11.8C24.19 12 24.29 12.22 24.3 12.44C24.33 13.25 24.33 14.06 24.33 14.87C24.33 14.9 24.27 14.97 24.23 14.97L24.25 14.94Z" fill="var(--fill-0, white)"/>
</g>
</svg>
