<svg preserveAspectRatio="none" width="100%" height="100%" overflow="visible" style="display: block;" viewBox="0 0 36 36" fill="none" xmlns="http://www.w3.org/2000/svg">
<g id="Icon">
<path id="Vector" d="M36 18C36 27.94 27.94 36 18 36C8.06 36 0 27.94 0 18C0 8.06 8.06 0 18 0C27.94 0 36 8.06 36 18Z" fill="var(--fill-0, #1C75BC)"/>
<path id="Vector_2" d="M30.59 19.15C31.42 19.76 32.3 20.32 33.16 20.9V20.6C32.48 19.66 31.8 18.73 31.13 17.79C30.55 16.98 29.8 16.75 28.87 17.08C27.69 17.5 26.51 17.94 25.27 18.39C25.13 18.11 25.01 17.88 25.54 17.63C27.33 16.8 28.68 15.44 29.77 13.82C30.47 12.79 30.51 11.73 29.74 10.72C29.22 10.04 28.71 9.31 28.05 8.8C27.48 8.37 26.66 8.09 26 7.96C25.33 7.83 24.3 7.73 23.41 7.82C22.52 7.91 20.61 8.36 19.22 8.56C19.15 8.57 19.08 8.6 18.91 8.65C21.12 9.29 23.01 9.79 24.42 10.34C24.4 10.43 24.37 10.51 24.35 10.6C22.8 10.95 21.2 11.2 19.58 11.43C20.34 12.28 21.68 12.66 23.38 12.78C23.92 12.82 25.15 12.81 25.6 12.84C26.23 12.88 26.51 13.2 26.24 13.79C25.81 14.72 25.18 15.88 24.7 16.82C24.08 16 23.73 15.69 23.11 15.25C21.19 13.88 15.04 13.82 13 15.16C12.29 15.62 11.68 16.09 11.44 16.66C10.91 15.59 10.44 14.67 9.99 13.74C9.99 13.73 9.97 13.7 9.96 13.69C9.77 13.18 10.04 12.89 10.62 12.85C11.07 12.82 12.21 12.83 13.28 12.68C14.64 12.49 15.7 12.42 16.63 11.54C15.07 11.3 13.73 11.08 11.86 10.62C11.84 10.53 11.81 10.45 11.79 10.36C13.58 9.66 15.39 9.21 17.3 8.67C17.13 8.62 17.06 8.59 16.99 8.58C15.59 8.38 13.69 7.93 12.8 7.84C11.91 7.75 10.88 7.84 10.21 7.98C9.54 8.11 8.73 8.39 8.16 8.82C7.49 9.33 6.99 10.06 6.47 10.74C5.7 11.75 5.74 12.8 6.44 13.84C7.51 15.53 9.22 17.02 11.09 17.83C11.08 18.07 11.06 18.33 11.05 18.67C10.12 18.28 9.27 17.91 8.42 17.55C8.12 17.42 7.8 17.34 7.5 17.21C6.36 16.75 5.37 16.85 4.66 17.97C4.05 18.92 3.45 19.88 2.85 20.83C3.82 20.19 4.78 19.52 5.79 18.94C6.18 18.72 6.73 18.56 7.15 18.67C8.36 18.96 9.53 19.4 10.72 19.78C10.7 19.84 10.69 19.9 10.67 19.96C9.78 20.02 8.88 20.07 8 20.16C6.55 20.31 6.15 20.64 5.79 22.03C5.51 23.08 5.29 24.14 5.05 25.19C5.12 25.22 5.2 25.25 5.27 25.28C5.62 24.73 6.07 24.22 6.32 23.63C7.22 21.5 9.05 21.31 10.99 21.3C11.09 21.3 11.27 21.44 11.28 21.53C11.29 21.62 11.17 21.79 11.06 21.83C10.45 22.06 9.82 22.26 9.2 22.49C8.41 22.8 7.85 23.32 7.83 24.22C7.81 25.47 7.83 26.73 7.98 28.03C8.14 27.58 8.3 27.13 8.46 26.68C8.61 26.25 8.81 25.83 8.92 25.39C9.26 23.99 10.33 23.44 11.58 23.09C11.72 23.05 11.94 23.08 12.06 23.16C12.52 23.47 12.98 23.78 13.37 24.16C13.51 24.3 13.54 24.65 13.49 24.89C13.32 25.75 13.36 26.57 13.76 27.34C14.14 26.5 14.47 25.7 14.87 24.93C14.97 24.73 15.28 24.58 15.51 24.53C17.21 24.19 18.91 24.19 20.62 24.43C20.83 24.46 21.12 24.6 21.21 24.77C21.65 25.58 22.02 26.42 22.42 27.25C23.05 26.34 22.8 25.28 22.56 24.28C23.07 23.9 23.54 23.54 24.03 23.19C24.12 23.12 24.28 23.04 24.36 23.07C25.23 23.44 26.28 23.55 26.68 24.6C27.14 25.8 27.57 27.02 28.01 28.23H28.16C28.16 26.99 28.16 25.75 28.16 24.51C28.16 23.47 27.67 22.79 26.7 22.46C26.2 22.29 25.69 22.13 25.2 21.93C25.09 21.88 24.99 21.69 24.97 21.55C24.97 21.49 25.17 21.34 25.29 21.34C27.05 21.32 28.67 21.57 29.53 23.44C29.85 24.14 30.34 24.77 30.74 25.43C30.82 25.4 30.9 25.38 30.99 25.35C30.61 23.95 30.29 22.54 29.84 21.16C29.56 20.3 28.66 20.29 27.93 20.18C27.08 20.06 26.22 20.04 25.3 19.83C26.21 19.48 27.13 19.14 28.05 18.8C28.97 18.46 29.82 18.59 30.63 19.18" fill="var(--fill-0, white)"/>
</g>
</svg>
