<svg preserveAspectRatio="none" width="100%" height="100%" overflow="visible" style="display: block;" viewBox="0 0 36 36" fill="none" xmlns="http://www.w3.org/2000/svg">
<g id="Icon">
<path id="Vector" d="M36 18C36 27.94 27.94 36 18 36C8.06 36 0 27.94 0 18C0 8.06 8.06 0 18 0C27.94 0 36 8.06 36 18Z" fill="var(--fill-0, #5AC6E6)"/>
<path id="Vector_2" d="M21.27 13.08C20.38 11.75 19.27 9.19 19.74 7.13C20.49 6.9 20.79 6.29 20.47 5.84C20.17 5.41 19 5.49 19 5.49L17.57 5.52L16.26 5.49C16.26 5.49 15.1 5.41 14.79 5.84C14.47 6.29 14.77 6.91 15.52 7.14C15.99 9.2 14.87 11.76 13.99 13.09C13.41 13.96 12.66 14.88 12.66 16.58C12.66 17.17 12.7 27.75 12.7 27.75C12.7 29.61 13.99 30.55 16.53 30.55H17.68H18.71C21.25 30.55 22.54 29.61 22.54 27.75C22.54 27.75 22.58 17.17 22.58 16.58C22.58 14.88 21.83 13.97 21.25 13.1" fill="var(--fill-0, white)"/>
</g>
</svg>
