<svg preserveAspectRatio="none" width="100%" height="100%" overflow="visible" style="display: block;" viewBox="0 0 36 36" fill="none" xmlns="http://www.w3.org/2000/svg">
<g id="Icon">
<path id="Vector" d="M36 18C36 27.94 27.94 36 18 36C8.06 36 0 27.94 0 18C0 8.06 8.06 0 18 0C27.94 0 36 8.06 36 18Z" fill="var(--fill-0, #FFC828)"/>
<path id="Vector_2" d="M27.91 16.85C27.37 15.75 26.69 14.73 25.9 13.79C25.47 13.28 25.01 12.81 24.39 12.52C23.55 13.31 22.72 14.1 21.89 14.88C21.81 14.95 21.69 15.04 21.6 15.03C21.19 15 20.78 14.98 20.39 14.89C19.97 14.79 19.56 14.63 19.14 14.49C18.84 15.66 18.53 16.84 18.22 18.07C18.16 18.07 18.03 18.11 17.93 18.07C17.57 17.96 17.2 17.86 16.86 17.69C16.4 17.46 15.98 17.16 15.52 16.93C15.18 16.75 14.84 16.53 14.42 16.53C14.34 17.34 14.26 18.12 14.19 18.89C13.39 18.75 12.66 18.62 11.86 18.48C11.71 19.02 11.58 19.54 11.43 20.06C11.36 20.29 11.27 20.53 11.16 20.75C11.05 20.98 10.86 21.06 10.61 21.01C10.41 20.98 10.21 20.96 9.91 20.93C10.24 21.76 10.52 22.53 10.85 23.28C11.27 24.24 11.9 25.09 12.53 25.92C13.62 27.34 14.83 28.64 16.37 29.6C18.18 30.72 20.11 31.08 22.15 30.42C24.43 29.68 26.31 28.34 27.73 26.39C28.55 25.27 29.01 24 29.14 22.62C29.34 20.58 28.8 18.68 27.92 16.87L27.91 16.85Z" fill="var(--fill-0, white)"/>
<path id="Vector_3" d="M10.27 19.45C10.31 19.3 10.32 19.14 10.34 18.98C10.41 18.45 10.48 17.93 10.55 17.4C10.58 17.2 10.68 17.13 10.89 17.12C11.55 17.12 12.22 17.09 12.95 17.07C12.87 16.29 12.78 15.5 12.69 14.66C12.98 14.7 13.26 14.71 13.52 14.79C14.15 14.98 14.76 15.21 15.39 15.39C15.85 15.52 16.32 15.61 16.67 15.46C16.74 14.17 16.81 12.96 16.87 11.71C17.79 11.71 18.71 11.72 19.62 11.71C19.75 11.71 19.92 11.64 20 11.55C20.27 11.25 20.53 10.93 20.76 10.59C21.13 10.04 21.46 9.47 21.82 8.89C21.69 8.81 21.61 8.76 21.53 8.71C20.08 7.84 18.52 7.24 16.88 6.86C14.92 6.41 12.96 6.22 10.98 6.73C9.63 7.08 8.64 7.84 8.19 9.21C7.76 10.52 7.63 11.86 7.66 13.23C7.71 15.36 8.09 17.42 8.97 19.38C9.22 19.93 9.21 19.92 9.79 19.87C10.07 19.84 10.21 19.7 10.27 19.46V19.45Z" fill="var(--fill-0, white)"/>
</g>
</svg>
