<svg preserveAspectRatio="none" width="100%" height="100%" overflow="visible" style="display: block;" viewBox="0 0 36 36" fill="none" xmlns="http://www.w3.org/2000/svg">
<g id="Icon">
<path id="Vector" d="M36 18C36 27.94 27.94 36 18 36C8.06 36 0 27.94 0 18C0 8.06 8.06 0 18 0C27.94 0 36 8.06 36 18Z" fill="var(--fill-0, #08BED5)"/>
<path id="Vector_2" d="M27.36 18.21C26.88 18.2 26.48 17.77 26.49 17.3C26.49 16.82 26.91 16.42 27.4 16.43C27.89 16.43 28.28 16.84 28.27 17.33C28.27 17.81 27.84 18.22 27.37 18.21M31.89 17.34C30.47 15.46 28.42 13.94 26.23 13.15C25.97 13.05 25.24 12.86 24.84 12.77C23.75 12.5 22.64 12.43 21.52 12.44C21.34 12.44 21.11 12.42 20.98 12.31C20.35 11.74 19.84 11.25 18.93 10.74C18.24 10.35 17.73 10.12 17.3 9.94C16.87 9.76 16.05 9.56 16.01 9.76C15.97 9.96 16.74 11.96 17.11 13.1C14.49 13.83 12 14.98 9.73 16.61C8.02 14.9 4.16 12.86 3.59 13.22C3.31 13.39 4.1 15.67 4.09 18.01C4.09 20.42 3.29 22.89 3.71 23.17C4.2 23.27 8 21.53 9.69 19.86C11.56 21.27 13.61 22.27 15.76 22.99C15.41 24.38 14.31 26.17 14.53 26.33C14.67 26.41 15.81 25.93 16.3 25.7C16.79 25.47 17.99 24.91 19.17 24.01C19.31 23.9 19.52 23.85 19.7 23.86C20.08 23.86 20.45 23.94 20.82 23.96C22.16 24.05 24.15 23.94 25.52 23.65C28.87 22.95 30.82 21.13 32.23 19.08C32.36 18.89 32.47 18.63 32.47 18.4C32.47 18.17 32.14 17.68 31.89 17.34Z" fill="var(--fill-0, white)"/>
</g>
</svg>
