<svg preserveAspectRatio="none" width="100%" height="100%" overflow="visible" style="display: block;" viewBox="0 0 36 36" fill="none" xmlns="http://www.w3.org/2000/svg">
<g id="Icon">
<path id="Vector" d="M36 18C36 27.94 27.94 36 18 36C8.06 36 0 27.94 0 18C0 8.06 8.06 0 18 0C27.94 0 36 8.06 36 18Z" fill="var(--fill-0, #702573)"/>
<path id="Vector_2" d="M22.92 28.59C21.55 28.93 20.06 29.09 18.44 29.09C16.82 29.09 15.22 28.82 13.81 28.29C12.4 27.76 11.19 27.01 10.18 26.04C9.16 25.08 8.37 23.92 7.8 22.57C7.23 21.22 6.95 19.72 6.95 18.06C6.95 16.4 7.24 14.87 7.82 13.51C8.4 12.15 9.2 10.99 10.23 10.03C11.25 9.07 12.46 8.34 13.84 7.83C15.22 7.32 16.71 7.06 18.3 7.06C19.89 7.06 21.49 7.31 22.91 7.81C24.33 8.31 25.48 8.99 26.37 9.84L23.18 13.47C22.68 12.9 22.04 12.43 21.23 12.07C20.42 11.71 19.5 11.52 18.48 11.52C17.59 11.52 16.77 11.68 16.03 12C15.28 12.33 14.63 12.78 14.08 13.36C13.53 13.94 13.1 14.63 12.79 15.43C12.48 16.23 12.33 17.1 12.33 18.05C12.33 19 12.47 19.9 12.74 20.71C13.02 21.52 13.43 22.21 13.97 22.79C14.51 23.37 15.18 23.82 15.98 24.15C16.78 24.48 17.69 24.64 18.71 24.64C19.3 24.64 19.86 24.6 20.4 24.51C20.93 24.42 21.43 24.28 21.88 24.08V20.27H17.89V16.19H26.52V27.28C25.5 27.81 24.3 28.25 22.93 28.58" fill="var(--fill-0, white)"/>
</g>
</svg>
