<svg preserveAspectRatio="none" width="100%" height="100%" overflow="visible" style="display: block;" viewBox="0 0 36 36" fill="none" xmlns="http://www.w3.org/2000/svg">
<g id="Icon">
<g id="Vector">
</g>
<path id="Vector_2" d="M18 0C8.08 0 0 8.07 0 18C0 27.93 8.07 36 18 36C27.93 36 36 27.92 36 18C36 8.08 27.92 0 18 0Z" fill="var(--fill-0, #231F20)"/>
<path id="Vector_3" d="M31.87 22.09C31.25 22.11 30.73 21.88 30.24 21.54C29.67 21.14 29.07 20.77 28.51 20.35C27.02 19.22 25.46 19.37 23.87 20.06C23.61 20.17 23.31 20.33 23.35 20.69C23.39 21.05 23.71 21.14 23.99 21.19C24.62 21.3 25.26 21.37 25.9 21.45C26.65 21.54 27.34 21.8 27.95 22.23C28.06 22.31 28.2 22.39 28.18 22.55C28.14 22.75 27.95 22.72 27.8 22.72C27.35 22.73 26.91 22.85 26.48 22.94C25.66 23.11 24.84 23.32 24 23.29C22.79 23.25 22.12 22.63 22.04 21.42C21.98 20.54 22.04 19.66 22.11 18.79C22.31 16.38 22.62 13.99 23.14 11.62C23.34 10.7 22.82 10.24 21.9 10.5C21.01 10.74 20.28 11.24 19.62 11.87C19.35 12.13 19.29 12.37 19.56 12.67C19.85 13 20.02 13.4 20.06 13.84C20.23 15.72 20.42 17.6 20.33 19.5C20.19 22.22 18.11 22.86 16.38 22.68C14.91 22.52 14.48 21.92 15 20.62C15.02 20.58 15.03 20.55 15.04 20.51C15.08 20.33 15.19 20.13 14.98 19.98C14.78 19.83 14.61 19.97 14.45 20.08C13.81 20.54 13.38 21.16 13.09 21.87C12.7 22.86 12.92 23.61 13.79 24.23C14.99 25.08 16.31 25.21 17.69 24.76C18.84 24.39 19.7 23.62 20.43 22.58C20.88 23.94 21.66 24.67 22.97 24.93C24.82 25.31 26.62 24.9 28.41 24.52C29.61 24.27 30.77 23.84 31.96 23.55C32.43 23.44 32.81 23.34 32.78 22.77C32.75 22.21 32.35 22.06 31.88 22.08L31.87 22.09Z" fill="var(--fill-0, white)"/>
<path id="Vector_4" d="M12.63 13.56C12.57 12.88 12.6 12.19 12.34 11.54C12.06 10.84 11.54 10.65 10.89 11.01C10.13 11.43 9.74 12.18 9.84 13.05C9.89 13.42 9.95 13.78 10.02 14.14C10.39 16.1 10.7 18.06 10.67 20.06C10.65 20.89 10.43 21.63 9.58 21.97C8.45 22.43 7.27 22.52 6.08 22.22C5.66 22.11 5.25 21.95 5.13 21.45C5.01 20.97 5.36 20.7 5.66 20.43C5.96 20.17 6.21 19.88 5.91 19.49C5.6 19.08 5.21 19.14 4.82 19.39C4.25 19.76 3.81 20.24 3.51 20.85C2.59 22.7 3.43 24.11 5.48 24.16C6.96 24.2 8.37 23.8 9.8 23.5C11.36 23.16 12.09 22.15 12.43 20.71C12.78 19.22 12.81 17.7 12.79 16.17C12.73 15.3 12.69 14.42 12.61 13.54L12.63 13.56Z" fill="var(--fill-0, white)"/>
<path id="Vector_5" d="M14.56 14.33C14.76 14.45 14.97 14.56 15.16 14.69C16.75 15.71 18.02 16.96 18.32 18.94C18.36 19.2 18.46 19.47 18.59 19.71C18.76 20.03 18.92 20.53 19.32 20.44C19.72 20.35 19.44 19.82 19.56 19.54C19.51 18.24 19.3 17 18.8 15.82C18.31 14.65 17.59 13.6 16.95 12.52C16.07 11.03 15.36 10.98 14.23 12.28C13.52 13.1 13.63 13.77 14.55 14.34L14.56 14.33Z" fill="var(--fill-0, white)"/>
</g>
</svg>
