<svg preserveAspectRatio="none" width="100%" height="100%" overflow="visible" style="display: block;" viewBox="0 0 36 36" fill="none" xmlns="http://www.w3.org/2000/svg">
<g id="Icon">
<path id="Vector" d="M18 36C27.9411 36 36 27.9411 36 18C36 8.05887 27.9411 0 18 0C8.05887 0 0 8.05887 0 18C0 27.9411 8.05887 36 18 36Z" fill="var(--fill-0, #36B66D)"/>
<path id="Vector_2" d="M29.52 5.06C29.03 4.7 24.84 1.91 22.3 1.25C21.86 1.14 20.9 1.01 20.77 1.08C20.64 1.15 20.38 1.32 20.26 1.39C20.13 1.46 19.82 1.57 19.47 1.46C19.12 1.35 18.79 1.21 18.9 1.14C19.01 1.07 19.12 0.99 19.27 0.93C19.42 0.87 19.38 0.68 18.83 0.74C18.27 0.8 15.66 0.84 15.55 0.88C15.44 0.92 15.18 1.13 15.11 1.3C15.04 1.47 14.87 1.76 14.82 1.88C14.76 2.01 14.56 2.12 14.45 1.98C14.34 1.84 14.09 1.69 14.03 1.69C13.97 1.69 13.54 1.73 13.67 2.05C13.79 2.37 14.02 2.59 14.07 2.67C14.15 2.82 14.22 2.95 14.1 3.03C13.98 3.11 13.85 3.22 13.77 3.25C13.69 3.28 13.46 3.35 13.49 3.21C13.52 3.07 13.53 2.68 13.52 2.61C13.51 2.54 13.3 2.49 13.17 2.43C13.04 2.37 12.93 2.26 12.91 2.4C12.88 2.54 12.87 2.76 12.92 2.91C12.98 3.06 12.92 3.09 12.8 3.09C12.68 3.09 10.47 3.09 10.27 3.1C10.08 3.11 9.95 3.13 9.85 3.02C9.75 2.91 9.55 2.92 9.45 2.9C7.51 4.01 5.8 5.48 4.41 7.22C4.42 7.26 4.43 7.3 4.47 7.33C4.85 7.75 5.72 8.58 5.83 8.77C5.94 8.96 6.21 9.53 6.17 10.17C6.13 10.81 5.98 11.95 6.17 12.44C6.36 12.93 6.74 13.46 7.64 13.99C8.09 14.29 8.06 14.41 8.43 15.01C8.81 15.61 9.38 16.45 9.41 16.6C9.64 16.68 9.86 16.56 9.86 16.56C9.86 16.56 8.69 14.86 8.69 14.71C8.69 14.56 8.95 14.6 9.11 14.75C9.26 14.9 10.43 16.38 10.47 16.53C10.51 16.68 10.85 17.29 10.85 17.4C10.85 17.51 11.45 18.08 11.76 18.19C12.06 18.3 12.4 18.57 12.86 18.76C13.31 18.95 13.54 18.91 13.69 18.84C13.84 18.76 14.18 18.76 14.52 19.1C14.86 19.44 15.2 19.48 15.65 19.52C16.1 19.56 16.14 19.82 16.18 19.97C16.22 20.12 16.56 20.46 16.67 20.54C16.78 20.62 17.05 20.8 17.35 20.84C17.65 20.88 18.13 20.74 18.33 21.07C18.67 21.64 18.29 22.24 17.99 22.7C17.69 23.15 17.6 24.44 18.1 25.27C19.35 27.31 19.99 26.82 20.44 27.73C20.67 28.83 19.95 32.42 19.84 32.83C19.73 33.25 19.73 33.89 19.69 34.27C19.47 34.65 19.46 35.17 19.46 35.32C19.65 35.3 19.84 35.29 20.03 35.26C20.19 35.2 20.38 35.1 20.6 34.95C20.88 34.75 21.32 35.03 21.47 34.91C21.62 34.8 21.55 34.57 21.7 34.38C21.85 34.19 22.38 33.59 22.61 33.43C22.84 33.27 23.23 33.56 23.59 33.13C23.97 32.68 23.7 32.34 23.97 32.18C24.23 32.03 24.42 32.14 24.65 32.03C24.88 31.92 26.05 30.1 26.31 29.8C26.57 29.5 26.88 29.23 27.22 29.16C27.56 29.08 28.05 28.74 28.35 28.33C28.65 27.91 28.46 26.89 28.61 26.52C28.76 26.14 29.37 25.65 29.63 25.27C29.89 24.89 29.93 24.25 29.21 24.02C28.49 23.79 26.83 23.34 26.56 23.34C26.29 23.34 26.07 23.64 25.96 23.42C25.85 23.19 25.73 23.27 25.58 23.27C25.43 23.27 25.35 23.12 25.43 22.74C25.51 22.36 25.32 21.76 25.13 21.68C24.94 21.6 24.75 21.34 24.11 21.34C23.47 21.34 23.62 20.66 22.98 20.55C22.34 20.44 21.43 20.02 21.01 20.02C20.59 20.02 20.25 19.64 19.57 20.06C18.89 20.48 19.04 20.55 18.78 20.55H17.23L16.89 20.25C16.89 20.25 16.89 19.46 16.93 19.23C16.97 19 16.74 18.81 16.51 18.85C16.28 18.89 15.94 18.77 15.75 18.81C15.56 18.85 15.56 18.58 15.67 18.43C15.78 18.28 15.94 18.12 15.95 17.97C15.96 17.82 15.99 17.22 15.45 17.57C14.91 17.92 14.76 18.06 14.64 18.15C14.53 18.25 14.5 18.29 14.21 18.27C13.92 18.26 13 17.69 12.97 16.99C12.94 16.3 13.22 15.87 13.59 15.56C13.96 15.25 14.49 14.96 15.06 14.95C15.63 14.94 16.06 14.78 16.38 14.89C16.7 15 17.07 15.2 17.13 15.5C17.19 15.81 17.41 16.07 17.56 16.07C17.71 16.07 17.77 15.88 17.71 15.31C17.64 15.17 17.43 15.17 17.45 14.89C17.46 14.61 17.52 14.64 17.64 14.49C17.76 14.34 17.82 14.34 17.82 14.2C17.82 14.06 17.86 13.98 18.17 13.84C18.48 13.7 18.41 13.72 18.57 13.67C18.73 13.62 18.81 13.27 18.81 13.03C18.81 12.79 20.77 10.74 20.98 10.68C21.19 10.62 21.35 10.47 21.54 10.5C21.72 10.53 21.76 10.58 21.65 10.67C21.54 10.75 21.46 10.85 21.46 10.91C21.46 10.97 22.11 11.01 22.2 10.92C22.28 10.84 22.57 10.52 22.71 10.46C22.85 10.4 22.92 10.07 23.32 10.09C23.72 10.1 24.71 10.13 24.83 10.05C24.95 9.97 24.97 9.86 24.84 9.7C24.72 9.55 24.22 8.84 24.09 8.85C23.96 8.86 23.4 9.68 23.31 9.77C23.23 9.85 23.06 10.06 22.85 10.1C22.64 10.14 22.43 10.27 22.32 10.27C22.21 10.27 21.9 10.19 21.9 10.12C21.9 10.05 21.89 9.44 21.89 9.44H21.38C21.38 9.44 21.35 9.54 21.27 9.58C21.19 9.62 20.99 9.68 20.87 9.73C20.75 9.79 20.55 9.85 20.54 9.77C20.53 9.69 20.89 9.31 20.97 9.3C21.05 9.29 22.11 9.18 22.33 9.19C22.55 9.2 22.82 9.23 22.97 9.2C23.12 9.17 23.25 8.92 23.41 8.88C23.58 8.84 23.7 8.82 23.88 8.71C24.06 8.6 24.09 8.24 23.77 7.96C23.45 7.68 22.55 6.77 22.44 6.65C22.33 6.53 22.29 6.33 22.29 6.21C22.29 6.09 22.12 5.84 21.93 5.84C21.74 5.84 21.36 6.12 21.36 6.3C21.36 6.48 21.17 6.51 21.05 6.45C20.94 6.39 20.08 5.34 19.93 5.27C19.78 5.2 18.42 4.94 18.29 5.08C18.17 5.22 18.25 5.75 18.33 5.9C18.41 6.05 18.87 6.69 18.89 6.77C18.9 6.85 18.83 7.3 18.6 7.44C18.36 7.58 18.18 7.68 18.09 7.72C17.99 7.76 18.02 8.12 18.12 8.3C18.22 8.48 18.24 8.45 18.08 8.59C17.91 8.73 17.51 8.66 17.4 8.59C17.29 8.52 17.37 8.13 17.34 7.94C17.31 7.75 16.87 7.58 16.48 7.45C16.09 7.33 14.45 6.73 14.26 6.58C14.07 6.43 13.8 5.69 14.07 5.51C14.33 5.33 14.47 5.02 14.64 4.94C14.81 4.86 15.04 4.84 15.2 4.77C15.36 4.7 15.87 4.12 16.01 3.91C16.15 3.7 16.05 3.73 16.5 3.72C16.94 3.71 17.28 3.68 17.33 3.47C17.39 3.26 17.66 2.37 17.73 2.32C17.8 2.26 18.02 2.04 18.42 2.26C18.82 2.48 19.6 2.87 19.63 2.95C19.66 3.03 19.89 3.51 19.67 3.64C19.45 3.78 19 3.92 18.93 4.08C18.86 4.25 18.72 4.33 19.03 4.34C19.34 4.35 19.65 4.4 19.88 4.46C20.1 4.53 20.5 4.74 20.91 4.9C21.31 5.07 21.4 5.09 21.37 4.98C21.34 4.87 20.95 4.7 21.12 4.7C21.29 4.7 21.83 4.73 21.93 4.73C22.03 4.73 22.1 4.56 21.78 4.36C21.46 4.15 21.11 3.76 21.16 3.71C21.2 3.65 21.65 3.92 21.84 4C22.03 4.08 22.15 4.03 22.27 3.93C22.39 3.83 22.45 3.79 22.46 3.74C22.47 3.68 21.63 3.28 21.4 3.07C21.18 2.86 21.05 2.82 21.11 2.74C21.17 2.66 21.39 2.73 21.68 2.85C21.97 2.97 23.19 3.95 23.28 4.09C23.36 4.23 23.21 4.4 23.79 4.51C24.37 4.62 24.55 4.65 24.94 4.97C25.33 5.29 26.19 5.61 26.38 5.71C26.57 5.81 26.7 5.96 27.27 6C27.84 6.04 27.96 6.1 28.58 6.04C29.19 5.98 29.87 5.86 29.97 5.76C30.07 5.66 30.01 5.43 29.53 5.07L29.52 5.06Z" fill="var(--fill-0, white)"/>
<path id="Vector_3" d="M10.28 2.64C10.58 2.68 10.95 2.63 11.2 2.69C11.45 2.75 11.83 2.66 11.8 2.59C11.77 2.52 11.99 2.51 12.08 2.5C12.17 2.49 12.34 2.26 12.21 2.24C12.07 2.21 11.81 2.2 11.74 2.14C11.67 2.08 11.6 2.11 11.41 2.14C11.22 2.17 11.12 2.23 11.02 2.29C10.92 2.35 10.96 2.37 10.73 2.39C10.59 2.41 10.41 2.42 10.29 2.46C10.26 2.47 10.23 2.49 10.2 2.5C10.19 2.51 10.17 2.53 10.18 2.54C10.23 2.64 10.28 2.64 10.28 2.64Z" fill="var(--fill-0, white)"/>
<path id="Vector_4" d="M34.82 14.44C34.82 14.44 34.94 14.46 35.01 14.47C34.89 13.88 34.73 13.3 34.55 12.74C34.51 12.74 34.48 12.76 34.48 12.76C34.41 12.85 33.95 13.12 34.16 13.61C34.36 14.1 34.65 14.43 34.82 14.44Z" fill="var(--fill-0, white)"/>
<path id="Vector_5" d="M35.27 16.11C34.94 16.39 34.15 17.36 33.99 17.43C33.79 17.52 33.36 18.13 33.36 18.4C33.36 18.67 33.14 20.44 33.33 20.62C33.52 20.79 34.32 21.8 34.51 22.09C34.59 22.22 34.66 22.49 34.71 22.76C35.14 21.24 35.39 19.65 35.39 18C35.39 17.36 35.35 16.73 35.28 16.11H35.27Z" fill="var(--fill-0, white)"/>
</g>
</svg>
