<svg preserveAspectRatio="none" width="100%" height="100%" overflow="visible" style="display: block;" viewBox="0 0 36 36" fill="none" xmlns="http://www.w3.org/2000/svg">
<g id="Icon">
<path id="Vector" d="M36 18C36 27.94 27.94 36 18 36C8.06 36 0 27.94 0 18C0 8.06 8.06 0 18 0C27.94 0 36 8.06 36 18Z" fill="var(--fill-0, #A97C50)"/>
<path id="Vector_2" d="M28.12 8.53C28 8.21 27.83 7.95 27.64 7.73C27.44 7.29 27.57 6.86 27.94 6.56C28.26 6.29 27.84 5.78 27.49 5.99C27.06 6.25 26.4 6.15 25.9 6.08C25.73 5.98 25.54 5.89 25.34 5.81C21.68 4.33 18.36 7.25 16.9 10.36C15.74 12.82 15.52 15.5 13.63 17.6C12.06 19.34 10 20.53 8.66 22.49C4.05 29.23 14.02 34.33 18.08 28.08C20.6 24.21 19.19 19.08 23.89 16.92C27.17 15.41 29.5 12.18 28.12 8.54V8.53ZM9.37 23.86C9.37 23.43 9.71 23.09 10.14 23.09C10.57 23.09 10.91 23.44 10.91 23.86C10.91 24.28 10.56 24.63 10.14 24.63C9.72 24.63 9.37 24.28 9.37 23.86ZM10.73 28.49C10.19 28.49 9.75 28.05 9.75 27.51C9.75 26.97 10.19 26.53 10.73 26.53C11.27 26.53 11.71 26.97 11.71 27.51C11.71 28.05 11.27 28.49 10.73 28.49ZM12.22 25.14C11.94 25.14 11.71 24.91 11.71 24.63C11.71 24.35 11.94 24.12 12.22 24.12C12.5 24.12 12.73 24.35 12.73 24.63C12.73 24.91 12.5 25.14 12.22 25.14ZM24.66 8.21C25.93 8.21 25.93 10.16 24.66 10.16C23.39 10.16 23.39 8.21 24.66 8.21ZM25.5 13.02C24.38 13.02 24.38 11.3 25.5 11.3C26.62 11.3 26.62 13.02 25.5 13.02Z" fill="var(--fill-0, white)"/>
</g>
</svg>
