<svg preserveAspectRatio="none" width="100%" height="100%" overflow="visible" style="display: block;" viewBox="0 0 36 36" fill="none" xmlns="http://www.w3.org/2000/svg">
<g id="Icon">
<path id="Vector" d="M36 18C36 27.94 27.94 36 18 36C8.06 36 0 27.94 0 18C0 8.06 8.06 0 18 0C27.94 0 36 8.06 36 18Z" fill="var(--fill-0, #B6A431)"/>
<path id="Vector_2" d="M26.25 12.4C25.34 13.84 23.71 14.45 22.61 13.76C21.51 13.07 21.35 11.33 22.26 9.89C23.17 8.45 24.8 7.84 25.9 8.53C27 9.22 27.15 10.96 26.25 12.4ZM21.93 19.72C20.71 21.19 18.82 21.62 17.71 20.7C16.59 19.77 16.67 17.83 17.89 16.37C19.11 14.9 21 14.47 22.11 15.39C23.23 16.32 23.15 18.26 21.93 19.72ZM14.87 26.3C13.46 27.47 11.6 27.55 10.7 26.48C9.81 25.41 10.22 23.59 11.63 22.42C13.04 21.25 14.9 21.17 15.8 22.24C16.69 23.31 16.28 25.13 14.87 26.3ZM26.94 5.5C26.84 5.19 26.5 5.2 26.31 5.37C26.26 5.41 26.21 5.46 26.18 5.54C25.5 7.42 23.16 7.08 21.84 8.23C21.24 8.75 20.85 9.45 20.61 10.21C20.43 10.77 20.48 11.33 20.35 11.88C20.06 13.1 19.67 13.36 18.59 13.75C17.82 14.03 17.02 14.45 16.58 15.16C15.8 16.44 15.72 17.88 14.65 19.05C13.48 20.33 11.9 20.57 10.54 21.5C9.76 22.04 9.13 22.79 8.72 23.65C8.22 24.7 8.43 27.48 7.25 27.92C7.01 28.01 6.96 28.25 7.04 28.43C7.07 28.62 7.21 28.78 7.45 28.77C10.14 28.56 14.28 29 16.4 26.94C17.52 25.85 17.84 24.3 19.24 23.43C20.56 22.61 21.75 22.52 22.96 21.45C24.09 20.44 24.45 19.57 24.88 18.17C25.1 17.47 25.11 16.05 25.45 15.4C25.87 14.62 26.61 14.34 27.12 13.68C28.79 11.54 27.65 7.79 26.92 5.5" fill="var(--fill-0, white)"/>
</g>
</svg>
