<svg preserveAspectRatio="none" width="100%" height="100%" overflow="visible" style="display: block;" viewBox="0 0 36 36" fill="none" xmlns="http://www.w3.org/2000/svg">
<g id="Icon">
<path id="Vector" d="M36 18C36 27.94 27.94 36 18 36C8.06 36 0 27.94 0 18C0 8.06 8.06 0 18 0C27.94 0 36 8.06 36 18Z" fill="var(--fill-0, #754C29)"/>
<path id="Vector_2" d="M23.02 20.28C21.58 18.27 19.94 16.44 18.09 14.79C16.83 13.66 15.49 12.62 14.02 11.76C13.11 11.23 12.38 11.3 11.62 11.91C10.37 12.91 9.49 14.17 8.86 15.63C8.29 16.97 7.95 18.37 7.76 19.8C7.54 21.45 7.48 23.11 7.9 24.75C8.04 25.16 8.16 25.57 8.32 25.97C8.77 27.05 9.67 27.63 10.73 27.95C12.84 28.58 14.99 28.5 17.13 28.15C18.31 27.96 19.45 27.61 20.53 27.11C21.8 26.52 22.98 25.79 23.87 24.68C24.36 24.07 24.57 23.37 24.3 22.61C24 21.76 23.53 21 23.01 20.28H23.02Z" fill="var(--fill-0, white)"/>
<path id="Vector_3" d="M25.64 11.1C25.56 10.99 25.46 10.93 25.59 10.79C26.31 10.05 27.13 9.55 28.21 9.68C28.55 9.72 28.89 9.74 29.24 9.77C29.24 9.2 29.18 8.69 28.91 8.22C28.62 7.71 28.41 7.57 27.84 7.66C27.54 7.71 27.23 7.8 26.94 7.92C25.91 8.37 25.04 9.04 24.46 9.87C23.89 9.57 23.34 9.25 22.77 8.99C21.18 8.25 19.44 7.81 17.68 7.91C16.19 7.99 14.54 8.51 13.89 9C13.54 9.26 13.21 9.63 13.2 10.04C14.23 9.59 15.1 9.97 15.93 10.51C16.64 10.97 17.32 11.46 18 11.96C19.42 13.02 20.72 14.22 21.93 15.51C23.31 16.99 24.64 18.51 25.64 20.28C26.13 21.15 26.53 22.06 26.19 23.13C26.66 23.11 26.95 22.83 27.15 22.52C27.35 22.21 27.79 21.16 28.01 20.45C28.73 17.96 28.51 15.49 27.15 13.08C26.73 12.37 26.15 11.76 25.63 11.12L25.64 11.1Z" fill="var(--fill-0, white)"/>
</g>
</svg>
