<svg preserveAspectRatio="none" width="100%" height="100%" overflow="visible" style="display: block;" viewBox="0 0 36 36" fill="none" xmlns="http://www.w3.org/2000/svg">
<g id="Icon">
<path id="Vector" d="M36 18C36 27.94 27.94 36 18 36C8.06 36 0 27.94 0 18C0 8.06 8.06 0 18 0C27.94 0 36 8.06 36 18Z" fill="var(--fill-0, #00A651)"/>
<path id="Vector_2" d="M15.74 13.54C15.74 13.54 18.59 16.13 21.22 21.23C22.5 23.71 23.29 26.32 23.76 28.35C24.38 26.71 26.43 20.52 23.92 15.73C21 10.15 13.01 8.58 13.01 8.58C13.01 8.58 13.14 9.63 12.72 11.24C12.03 13.92 10.86 18.14 12.68 21.63C15.11 26.27 21.05 28.14 22.98 28.64C22.17 26.8 21.06 24.41 19.8 21.98C17.16 16.89 15.73 13.56 15.73 13.56" fill="var(--fill-0, white)"/>
</g>
</svg>
