<svg preserveAspectRatio="none" width="100%" height="100%" overflow="visible" style="display: block;" viewBox="0 0 36 36" fill="none" xmlns="http://www.w3.org/2000/svg">
<g id="Icon">
<path id="Vector" d="M36 18C36 27.94 27.94 36 18 36C8.06 36 0 27.94 0 18C0 8.06 8.06 0 18 0C27.94 0 36 8.06 36 18Z" fill="var(--fill-0, #F7941D)"/>
<path id="Vector_2" d="M18.57 18.67C19.74 18.62 20.75 18.4 21.6 18.03C23.94 17.01 25.08 14.86 24.97 11.99C24.97 11.73 24.94 11.46 24.91 11.19C24.78 11.19 24.65 11.18 24.52 11.18C21.88 11.18 19.54 13.05 18.69 15.37C18.46 16 18.34 16.67 18.35 17.34C18.35 17.79 18.43 18.24 18.57 18.68V18.67Z" fill="var(--fill-0, white)"/>
<path id="Vector_3" d="M24.95 24.3C24.95 24.3 24.95 24.24 24.95 24.2C24.95 24.2 24.95 24.14 24.95 24.1C24.41 24.19 23.91 24.23 23.42 24.34C22.46 24.56 21.56 24.88 20.79 25.42C20.33 25.74 19.91 26.14 19.56 26.65C19.06 27.38 18.77 28.16 18.62 28.96C18.51 29.56 18.47 30.19 18.49 30.82C18.49 31.03 18.5 31.24 18.52 31.45C18.52 31.45 18.52 31.47 18.53 31.47C18.55 31.53 18.65 31.61 18.74 31.66C18.77 31.68 18.81 31.68 18.83 31.68C19.18 31.66 19.53 31.61 19.87 31.54C20.03 31.51 20.18 31.47 20.34 31.43C21.32 31.18 22.24 30.8 22.99 30.18C23.39 29.85 23.75 29.47 24.04 28.99C24.72 27.89 24.98 26.7 25 25.41C25 25.04 24.99 24.67 24.95 24.29V24.3Z" fill="var(--fill-0, white)"/>
<path id="Vector_4" d="M17.91 4.24C14.49 7.55 14.69 11.08 17.91 14.11C21.14 11.12 21.33 7.51 17.91 4.24Z" fill="var(--fill-0, white)"/>
<path id="Vector_5" d="M17.2 18.76C17.73 14.09 15.26 11.45 10.94 11.22C10.93 11.22 10.92 11.22 10.91 11.22C10.88 11.22 10.85 11.22 10.81 11.22C10.66 13.27 10.83 15.26 12.34 16.83C13.65 18.19 15.38 18.62 17.2 18.77V18.76Z" fill="var(--fill-0, white)"/>
<path id="Vector_6" d="M10.86 24.2C10.75 24.67 10.71 25.15 10.72 25.61C10.77 28.64 13.08 31.33 15.96 31.7C16.18 31.73 16.41 31.74 16.63 31.74C16.81 31.74 17 31.74 17.18 31.71C17.73 27.41 15.61 24.51 10.86 24.19V24.2Z" fill="var(--fill-0, white)"/>
<path id="Vector_7" d="M10.94 17.7C10.94 17.7 10.88 17.7 10.85 17.7C10.36 22.52 12.93 25 17.21 25.19C17.78 20.95 15.58 17.9 10.96 17.71L10.94 17.7Z" fill="var(--fill-0, white)"/>
<path id="Vector_8" d="M19 25.15C22.28 25.15 25.14 22.1 25.1 18.96C25.1 18.51 25.03 18.06 24.9 17.62C23.02 17.7 21.47 18.24 20.36 19.22C19.1 20.34 18.42 22.03 18.48 24.26C18.48 24.54 18.51 24.83 18.54 25.12C18.69 25.13 18.84 25.14 18.99 25.14L19 25.15Z" fill="var(--fill-0, white)"/>
</g>
</svg>
