<svg width="176" height="173" viewBox="0 0 176 173" fill="none" xmlns="http://www.w3.org/2000/svg">
<path d="M82.7569 169.461C37.2634 169.461 0.25 132.547 0.25 87.1753C0.25 41.8039 37.2634 4.88995 82.7569 4.88995C128.25 4.88995 165.264 41.8039 165.264 87.1753C165.264 132.547 128.25 169.461 82.7569 169.461ZM82.7569 6.67798C38.2494 6.67798 2.04285 42.7873 2.04285 87.1753C2.04285 131.563 38.2494 167.673 82.7569 167.673C127.264 167.673 163.471 131.563 163.471 87.1753C163.471 42.7873 127.264 6.67798 82.7569 6.67798Z" fill="white"/>
<path d="M92.7431 172.25C47.2495 172.25 10.2362 135.336 10.2362 89.9646C10.2362 44.5933 47.2406 7.67928 92.7431 7.67928C138.246 7.67928 175.25 44.5933 175.25 89.9646C175.25 135.336 138.237 172.25 92.7431 172.25ZM92.7431 9.46732C48.2356 9.46732 12.0201 45.5856 12.0201 89.9646C12.0201 134.344 48.2266 170.462 92.7341 170.462C137.242 170.462 173.448 134.353 173.448 89.9646C173.448 45.5767 137.242 9.46732 92.7431 9.46732Z" fill="white"/>
<path d="M89.0767 164.597C43.6459 164.597 6.67736 127.737 6.67736 82.4191C6.67736 37.1014 43.6459 0.25 89.0767 0.25C134.507 0.25 171.476 37.1103 171.476 82.4281C171.476 127.746 134.516 164.606 89.0767 164.606V164.597ZM89.0767 1.81453C44.5154 1.81453 8.25507 37.9775 8.25507 82.4281C8.25507 126.879 44.5154 163.042 89.0857 163.042C133.656 163.042 169.916 126.879 169.916 82.4281C169.916 37.9775 133.647 1.81453 89.0767 1.81453Z" fill="white"/>
<path d="M36.3042 110.393C35.9904 110.393 35.7663 110.214 35.7663 109.857V107.934C35.7663 107.577 35.9456 107.398 36.3042 107.398H38.7245V81.3374H36.3938C36.0801 81.3374 35.856 81.1586 35.856 80.801V78.8788C35.856 78.5212 36.0353 78.3424 36.3938 78.3424H41.6827C42.0413 78.3424 42.2206 78.5212 42.2206 78.8788L42.1758 82.4102H42.2654C43.2067 80.3093 45.6718 78.0295 49.7057 78.0295C55.667 78.0295 59.7905 82.4102 59.7905 89.2941C59.7905 96.1781 55.8911 100.648 49.7506 100.648C45.7615 100.648 43.3859 98.4131 42.4447 96.2675H42.3102C42.3102 96.2675 42.4447 97.6979 42.4447 98.3237V107.398H45.3581C45.7167 107.398 45.8959 107.577 45.8959 107.934V109.857C45.8959 110.214 45.7167 110.393 45.3581 110.393H36.3042ZM56.1241 89.3746C56.1241 84.2787 53.1211 81.1496 49.2217 81.1496C45.7704 81.1496 42.364 83.787 42.364 89.6875C42.364 94.7387 45.7704 97.5101 49.2217 97.5101C53.1659 97.5101 56.1241 94.2917 56.1241 89.3746Z" fill="white"/>
<path d="M64.183 100.326C63.8244 100.326 63.6003 100.147 63.6003 99.7899V97.8678C63.6003 97.5101 63.8244 97.3313 64.183 97.3313H66.693V71.226H64.183C63.8244 71.226 63.6003 71.0472 63.6003 70.6896V68.7675C63.6003 68.4099 63.8244 68.2311 64.183 68.2311H69.1582C70.0546 68.2311 70.3683 68.5887 70.3683 69.3486V97.3313H72.7439C73.1024 97.3313 73.3265 97.5101 73.3265 97.8678V99.7899C73.3265 100.147 73.1024 100.326 72.7439 100.326H64.183Z" fill="white"/>
<path d="M95.0648 100.326C93.765 100.326 93.1375 99.8346 93.1375 98.4489V96.1691H93.0479C92.2411 97.2866 89.7311 100.684 84.3077 100.684C80.1394 100.684 76.957 98.3595 76.957 94.4705C76.957 89.3746 81.8874 87.4077 88.9691 87.4077H92.7341V86.8266C92.7341 82.5801 90.3586 81.1496 86.9074 81.1496C82.1563 81.1496 80.3186 83.2953 80.1394 83.2953C79.9153 83.3847 79.6463 83.3847 79.467 83.1612L78.212 81.5966C77.9879 81.3284 78.0328 81.1049 78.3017 80.8814C78.5258 80.6132 80.991 78.0206 87.0418 78.0206C93.0927 78.0206 96.4543 80.4344 96.4543 86.9607V97.3313H98.9643C99.3228 97.3313 99.5021 97.5101 99.5021 97.8678V99.7899C99.5021 100.147 99.3228 100.326 98.9643 100.326H95.0648ZM92.7341 90.4027H89.1484C84.5767 90.4027 80.8117 91.0285 80.8117 93.9788C80.8117 95.9903 82.5597 97.4654 85.3386 97.4654C89.1484 97.4654 91.6584 94.8728 92.7341 93.4424V90.4027Z" fill="white"/>
<path d="M116.624 98.0466C116.893 98.3148 116.803 98.6277 116.534 98.8959C116.131 99.2535 114.652 100.639 112.007 100.639C107.525 100.639 104.836 98.0913 104.836 93.0401V81.3284H102.281C101.922 81.3284 101.654 81.1049 101.654 80.7473V78.9146C101.654 78.557 101.922 78.3335 102.281 78.3335H104.836V73.8187C104.836 73.4611 105.06 73.1929 105.419 73.1929H107.929C108.287 73.1929 108.556 73.4611 108.556 73.8187V78.3335H114.203C114.562 78.3335 114.831 78.557 114.831 78.9146V80.7473C114.831 81.1049 114.562 81.3284 114.203 81.3284H108.556V92.9507C108.556 95.9456 109.945 97.5101 112.366 97.5101C113.71 97.5101 114.562 96.7949 114.741 96.6161C115.055 96.3479 115.324 96.3926 115.548 96.6608L116.624 98.0466Z" fill="white"/>
<path d="M122.854 90.1792C123.123 95.2751 126.753 97.5101 130.294 97.5101C134.239 97.5101 136.838 95.0963 137.466 94.0682C137.645 93.7553 137.959 93.7106 138.228 93.9341L139.483 95.141C139.752 95.4092 139.796 95.6774 139.617 95.9456C139.034 96.929 135.987 100.639 130.07 100.639C124.154 100.639 119.089 96.3926 119.089 89.2405C119.089 82.0883 124.288 78.0206 129.622 78.0206C136.211 78.0206 139.617 82.3119 139.617 89.5981C139.617 89.9557 139.393 90.1792 139.034 90.1792H122.854ZM135.987 87.1842C135.807 83.787 133.701 81.1496 129.756 81.1496C126.44 81.1496 123.526 83.1612 122.944 87.1842H135.987Z" fill="white"/>
<path d="M86.2619 63.7699C86.2619 64.4762 85.8316 65.0305 85.1414 65.2451C86.0109 65.4775 86.504 66.1838 86.504 66.9795C86.504 68.392 85.1862 68.7764 84.0029 68.7764H81.1702V61.8925H84.0029C85.1683 61.8925 86.2709 62.4647 86.2709 63.7699H86.2619ZM81.6991 65.0126H84.0657C84.8904 65.0126 85.7599 64.7534 85.7599 63.7699C85.7599 62.7865 84.8545 62.3395 83.994 62.3395H81.6991V65.0126ZM81.6991 68.2668H83.994C84.8635 68.2668 85.9751 68.0612 85.9751 66.9705C85.9661 65.8977 84.989 65.5133 84.0657 65.5133H81.6991V68.2668Z" fill="white"/>
<path d="M98.0678 68.7764L95.6834 66.1659H93.8009V68.7764H93.272V61.8925H96.3109C97.8079 61.8925 98.5698 62.9653 98.5788 64.0381C98.5878 65.1557 97.8527 66.1391 96.3377 66.1391L98.776 68.7764H98.0678ZM93.8009 65.6742H96.2481C97.4493 65.6742 97.9872 64.9947 97.9961 64.0292C98.0051 63.2246 97.4493 62.3842 96.3109 62.3842H93.8098V65.6652L93.8009 65.6742Z" fill="white"/>
<path d="M110.636 61.8925V66.1748C110.636 69.7777 105.347 69.7867 105.347 66.1748V61.8925H105.867V66.1748C105.867 69.134 110.107 69.1251 110.107 66.1748V61.8925H110.636Z" fill="white"/>
<path d="M117.583 68.7764V61.8925H118.103V68.7764H117.583Z" fill="white"/>
<path d="M125.346 61.8925L129.99 67.5874V61.8925H130.509V68.7764H130.303L125.651 63.0905V68.7764H125.122V61.8925H125.346Z" fill="white"/>
<path d="M82.7569 169.461C37.2634 169.461 0.25 132.547 0.25 87.1753C0.25 41.8039 37.2634 4.88995 82.7569 4.88995C128.25 4.88995 165.264 41.8039 165.264 87.1753C165.264 132.547 128.25 169.461 82.7569 169.461ZM82.7569 6.67798C38.2494 6.67798 2.04285 42.7873 2.04285 87.1753C2.04285 131.563 38.2494 167.673 82.7569 167.673C127.264 167.673 163.471 131.563 163.471 87.1753C163.471 42.7873 127.264 6.67798 82.7569 6.67798Z" stroke="white" stroke-width="0.5" stroke-miterlimit="10"/>
<path d="M92.7431 172.25C47.2495 172.25 10.2362 135.336 10.2362 89.9646C10.2362 44.5933 47.2406 7.67928 92.7431 7.67928C138.246 7.67928 175.25 44.5933 175.25 89.9646C175.25 135.336 138.237 172.25 92.7431 172.25ZM92.7431 9.46732C48.2356 9.46732 12.0201 45.5856 12.0201 89.9646C12.0201 134.344 48.2266 170.462 92.7341 170.462C137.242 170.462 173.448 134.353 173.448 89.9646C173.448 45.5767 137.242 9.46732 92.7431 9.46732Z" stroke="white" stroke-width="0.5" stroke-miterlimit="10"/>
<path d="M89.0767 164.597C43.6459 164.597 6.67736 127.737 6.67736 82.4191C6.67736 37.1014 43.6459 0.25 89.0767 0.25C134.507 0.25 171.476 37.1103 171.476 82.4281C171.476 127.746 134.516 164.606 89.0767 164.606V164.597ZM89.0767 1.81453C44.5154 1.81453 8.25507 37.9775 8.25507 82.4281C8.25507 126.879 44.5154 163.042 89.0857 163.042C133.656 163.042 169.916 126.879 169.916 82.4281C169.916 37.9775 133.647 1.81453 89.0767 1.81453Z" stroke="white" stroke-width="0.5" stroke-miterlimit="10"/>
<path d="M36.3042 110.393C35.9904 110.393 35.7663 110.214 35.7663 109.857V107.934C35.7663 107.577 35.9456 107.398 36.3042 107.398H38.7245V81.3374H36.3938C36.0801 81.3374 35.856 81.1586 35.856 80.801V78.8788C35.856 78.5212 36.0353 78.3424 36.3938 78.3424H41.6827C42.0413 78.3424 42.2206 78.5212 42.2206 78.8788L42.1758 82.4102H42.2654C43.2067 80.3093 45.6718 78.0295 49.7057 78.0295C55.667 78.0295 59.7905 82.4102 59.7905 89.2941C59.7905 96.1781 55.8911 100.648 49.7506 100.648C45.7615 100.648 43.3859 98.4131 42.4447 96.2675H42.3102C42.3102 96.2675 42.4447 97.6979 42.4447 98.3237V107.398H45.3581C45.7167 107.398 45.8959 107.577 45.8959 107.934V109.857C45.8959 110.214 45.7167 110.393 45.3581 110.393H36.3042ZM56.1241 89.3746C56.1241 84.2787 53.1211 81.1496 49.2217 81.1496C45.7704 81.1496 42.364 83.787 42.364 89.6875C42.364 94.7387 45.7704 97.5101 49.2217 97.5101C53.1659 97.5101 56.1241 94.2917 56.1241 89.3746Z" stroke="white" stroke-width="0.5" stroke-miterlimit="10"/>
<path d="M64.183 100.326C63.8244 100.326 63.6003 100.147 63.6003 99.7899V97.8678C63.6003 97.5101 63.8244 97.3313 64.183 97.3313H66.693V71.226H64.183C63.8244 71.226 63.6003 71.0472 63.6003 70.6896V68.7675C63.6003 68.4099 63.8244 68.2311 64.183 68.2311H69.1582C70.0546 68.2311 70.3683 68.5887 70.3683 69.3486V97.3313H72.7439C73.1024 97.3313 73.3265 97.5101 73.3265 97.8678V99.7899C73.3265 100.147 73.1024 100.326 72.7439 100.326H64.183Z" stroke="white" stroke-width="0.5" stroke-miterlimit="10"/>
<path d="M95.0648 100.326C93.765 100.326 93.1375 99.8346 93.1375 98.4489V96.1691H93.0479C92.2411 97.2866 89.7311 100.684 84.3077 100.684C80.1394 100.684 76.957 98.3595 76.957 94.4705C76.957 89.3746 81.8874 87.4077 88.9691 87.4077H92.7341V86.8266C92.7341 82.5801 90.3586 81.1496 86.9074 81.1496C82.1563 81.1496 80.3186 83.2953 80.1394 83.2953C79.9153 83.3847 79.6463 83.3847 79.467 83.1612L78.212 81.5966C77.9879 81.3284 78.0328 81.1049 78.3017 80.8814C78.5258 80.6132 80.991 78.0206 87.0418 78.0206C93.0927 78.0206 96.4543 80.4344 96.4543 86.9607V97.3313H98.9643C99.3228 97.3313 99.5021 97.5101 99.5021 97.8678V99.7899C99.5021 100.147 99.3228 100.326 98.9643 100.326H95.0648ZM92.7341 90.4027H89.1484C84.5767 90.4027 80.8117 91.0285 80.8117 93.9788C80.8117 95.9903 82.5597 97.4654 85.3386 97.4654C89.1484 97.4654 91.6584 94.8728 92.7341 93.4424V90.4027Z" stroke="white" stroke-width="0.5" stroke-miterlimit="10"/>
<path d="M116.624 98.0466C116.893 98.3148 116.803 98.6277 116.534 98.8959C116.131 99.2535 114.652 100.639 112.007 100.639C107.525 100.639 104.836 98.0913 104.836 93.0401V81.3284H102.281C101.922 81.3284 101.654 81.1049 101.654 80.7473V78.9146C101.654 78.557 101.922 78.3335 102.281 78.3335H104.836V73.8187C104.836 73.4611 105.06 73.1929 105.419 73.1929H107.929C108.287 73.1929 108.556 73.4611 108.556 73.8187V78.3335H114.203C114.562 78.3335 114.831 78.557 114.831 78.9146V80.7473C114.831 81.1049 114.562 81.3284 114.203 81.3284H108.556V92.9507C108.556 95.9456 109.945 97.5101 112.366 97.5101C113.71 97.5101 114.562 96.7949 114.741 96.6161C115.055 96.3479 115.324 96.3926 115.548 96.6608L116.624 98.0466Z" stroke="white" stroke-width="0.5" stroke-miterlimit="10"/>
<path d="M122.854 90.1792C123.123 95.2751 126.753 97.5101 130.294 97.5101C134.239 97.5101 136.838 95.0963 137.466 94.0682C137.645 93.7553 137.959 93.7106 138.228 93.9341L139.483 95.141C139.752 95.4092 139.796 95.6774 139.617 95.9456C139.034 96.929 135.987 100.639 130.07 100.639C124.154 100.639 119.089 96.3926 119.089 89.2405C119.089 82.0883 124.288 78.0206 129.622 78.0206C136.211 78.0206 139.617 82.3119 139.617 89.5981C139.617 89.9557 139.393 90.1792 139.034 90.1792H122.854ZM135.987 87.1842C135.807 83.787 133.701 81.1496 129.756 81.1496C126.44 81.1496 123.526 83.1612 122.944 87.1842H135.987Z" stroke="white" stroke-width="0.5" stroke-miterlimit="10"/>
<path d="M86.2619 63.7699C86.2619 64.4762 85.8316 65.0305 85.1414 65.2451C86.0109 65.4775 86.504 66.1838 86.504 66.9795C86.504 68.392 85.1862 68.7764 84.0029 68.7764H81.1702V61.8925H84.0029C85.1683 61.8925 86.2709 62.4647 86.2709 63.7699H86.2619ZM81.6991 65.0126H84.0657C84.8904 65.0126 85.7599 64.7534 85.7599 63.7699C85.7599 62.7865 84.8545 62.3395 83.994 62.3395H81.6991V65.0126ZM81.6991 68.2668H83.994C84.8635 68.2668 85.9751 68.0612 85.9751 66.9705C85.9661 65.8977 84.989 65.5133 84.0657 65.5133H81.6991V68.2668Z" stroke="white" stroke-width="0.5" stroke-miterlimit="10"/>
<path d="M98.0678 68.7764L95.6834 66.1659H93.8009V68.7764H93.272V61.8925H96.3109C97.8079 61.8925 98.5698 62.9653 98.5788 64.0381C98.5878 65.1557 97.8527 66.1391 96.3377 66.1391L98.776 68.7764H98.0678ZM93.8009 65.6742H96.2481C97.4493 65.6742 97.9872 64.9947 97.9961 64.0292C98.0051 63.2246 97.4493 62.3842 96.3109 62.3842H93.8098V65.6652L93.8009 65.6742Z" stroke="white" stroke-width="0.5" stroke-miterlimit="10"/>
<path d="M110.636 61.8925V66.1748C110.636 69.7777 105.347 69.7867 105.347 66.1748V61.8925H105.867V66.1748C105.867 69.134 110.107 69.1251 110.107 66.1748V61.8925H110.636Z" stroke="white" stroke-width="0.5" stroke-miterlimit="10"/>
<path d="M117.583 68.7764V61.8925H118.103V68.7764H117.583Z" stroke="white" stroke-width="0.5" stroke-miterlimit="10"/>
<path d="M125.346 61.8925L129.99 67.5874V61.8925H130.509V68.7764H130.303L125.651 63.0905V68.7764H125.122V61.8925H125.346Z" stroke="white" stroke-width="0.5" stroke-miterlimit="10"/>
</svg>
