<?xml version="1.0" encoding="UTF-8"?><svg id="Layer_2" xmlns="http://www.w3.org/2000/svg" viewBox="0 0 223.68 195.2"><defs><style>.cls-1{fill:#d44227;}.cls-2{fill:#020000;}</style></defs><g id="Logos"><polygon class="cls-1" points="95.57 139.19 114.91 139.19 114.91 135.29 95.57 135.29 95.57 116.81 116.3 116.81 116.3 112.9 91.39 112.9 91.39 163.66 116.92 163.66 116.92 159.76 95.57 159.76 95.57 139.19"/><path class="cls-1" d="M136.28,112.9l-15.78,50.76h4.24l4.71-15.39h17.71l4.71,15.39h4.23l-15.21-50.76h-4.61ZM146.23,144.65h-15.69l7.94-26.21,7.75,26.21Z"/><path class="cls-1" d="M176.04,136.85l-7.35-2.57c-4.74-1.6-6.85-4.37-6.85-8.96,0-8.37,6.25-9.62,9.97-9.62,7.78,0,9.41,5.69,9.41,10.46v.64h4.18v-.64c0-9.08-4.93-14.09-13.87-14.09-8.3,0-13.88,5.44-13.88,13.53,0,6.51,3.04,10.2,10.48,12.73l5.61,1.94c5.69,1.99,8.58,4.08,8.58,10s-4.54,10.59-10.8,10.59-10.6-4.13-10.6-10.52v-3.2h-4.18v3.9c0,6.21,3.87,13.45,14.78,13.45,8.82,0,14.98-5.93,14.98-14.42s-5.04-11.32-10.48-13.21Z"/><polygon class="cls-1" points="187.82 112.9 187.82 116.81 200.99 116.81 200.99 163.66 205.17 163.66 205.17 116.81 218.34 116.81 218.34 112.9 187.82 112.9"/><path class="cls-2" d="M103.81,191.43l-3.39-8h-7.68l-3.39,8h-1.04l8.27-19.53,8.27,19.53h-1.04ZM93.11,182.52h6.91l-3.17-7.52-.26-.85-.27.85-3.2,7.52Z"/><path class="cls-2" d="M121.18,173.64h-6.88v17.79h-.99v-17.79h-6.88v-.88h14.75v.88Z"/><path class="cls-2" d="M140.43,191.43l-4.14-8.86h-3.46v8.86h-.99v-18.67h3.84c2.11,0,5.49,1.36,5.49,4.8,0,2.56-1.39,4.35-3.92,4.88l4.19,8.99h-1.01ZM135.55,181.69c3.65,0,4.64-2.35,4.64-4.13,0-2.08-2-3.92-4.62-3.92h-2.75v8.05h2.72Z"/><path class="cls-2" d="M148.62,172.76v18.67h-.99v-18.67h.99Z"/><path class="cls-2" d="M153.72,172.76h10.91v.88h-9.92v7.95h8.88v.88h-8.88v8.09h10.3v.88h-11.28v-18.67Z"/><path class="cls-2" d="M169.46,172.76h4.03c3.28,0,5.5,1.36,5.5,4.67,0,2.19-1.09,4-3.36,4.62,2.13.45,4.05,2,4.05,4.59,0,3.17-2.77,4.8-5.71,4.8h-4.5v-18.67ZM170.44,181.59h3.44c2.51,0,4.11-1.71,4.11-4.16,0-2.72-1.71-3.79-4.16-3.79h-3.39v7.95ZM170.44,190.55h3.52c2.56,0,4.73-1.31,4.73-3.92,0-2.91-2.54-4.16-5.18-4.16h-3.07v8.09Z"/><path class="cls-2" d="M184.02,172.76h10.91v.88h-9.92v7.95h8.88v.88h-8.88v8.09h10.3v.88h-11.29v-18.67Z"/><path class="cls-2" d="M208.88,191.43l-4.14-8.86h-3.47v8.86h-.99v-18.67h3.84c2.11,0,5.49,1.36,5.49,4.8,0,2.56-1.39,4.35-3.92,4.88l4.19,8.99h-1.01ZM204,181.69c3.65,0,4.64-2.35,4.64-4.13,0-2.08-2-3.92-4.61-3.92h-2.75v8.05h2.72Z"/><path class="cls-1" d="M212.84,53.63c3.65-.65,7.27-1.63,10.84-2.88-2.01,0-4.02-.09-6.01-.28,1.85-.37,3.7-.83,5.54-1.36-9.89-.87-10.9-1.35-17.03-2.47-5.6-.65-11.16-2.17-16.7-4.23-11.07-4.16-22.18-10.25-33.71-14.37,11.48,3.63,22.62,9.19,33.59,12.86,5.5,1.83,10.98,3.1,16.47,3.55,5.49.46,11,.1,16.48-.97-7.1.49-14.12-.24-21.01-2.26-6.9-2-13.69-5.29-20.64-9.01-3.26-1.74-7.96-3.66-12.79-5.55,0,0,.01,0,0-.01-14.69-6.11-18.59-8.67-23.62-11.08,2.93-2.22,5.31-3.93,7.39-5.34,1.12-.75.23-.39-.82.04-.62.25-1.3.52-1.63.55.47-.33.95-.66,1.44-.98-.24.16,1.67-.96,1.1-.67.14-.07.25-.13.34-.18.13-.07.81-.43,1.55-.82.62-.27,1.19-.55,1.64-.87.26-.14.44-.23.44-.23,0,0-.06,0-.14,0,.01,0,.03-.02.04-.03-.03,0-.06.02-.08.03-.8,0-3.94.04-3.96.04-1.39.21-2.78.46-4.17.73.16-.11.34-.23.55-.36,1.74-1.13,3.96-2.01,5.52-2.51,1.57-.49,2.47-.65,1.64-.53-.66-.23-3.27.92-3.6.53,3.09-1.46,4.75-1.77,7.38-2.49.07-.58-4.49.88-.39-.76-.18.36,1.28.1,2.87-.14,1.63-.26,3.15-.41,3.78-.59-3.35.21-5.15.39-7.28.67-2.08.32-4.42.8-8.21,2.7-.21.6,1.04.09,2.46-.45,1.42-.55,3.01-1.12,3.35-.91-3.7,1.34-9.1,3.82-10.96,3.87-1.79.89-3.31,1.9-4.56,2.74-.49.14-.97.28-1.46.42,1.53-.93,3.19-1.99,4.77-2.88,2.35-1.34,4.51-2.29,5.51-2.12-1.24.02,2.37-1.66,2.61-2.1-6.88,2.43-10.82,5.14-14.33,5.88-1.5,1.23-2.6,1.97-3.51,2.52-.25-.09-.51-.17-.77-.26C114.63,5.08,96.75.36,77.97.03c-18.44-.33-38.06,1.96-55.07,12.1-2.92,1.74-6.25,3.92-9.11,6.7-.67.55-1.33,1.12-1.97,1.71-.02.18-.06.37-.12.56-.86,1.05-1.65,2.17-2.31,3.38-.59.62-1.25,1.27-1.96,1.95-2.36,2.24-5.24,4.86-7.42,7.51.82-.13,2.18-1.53,3.12-1.88-.24.5-.92,1.16-1.08,1.65,2.69-3.08,5.31-5.13,7.56-6.07.36.19-.15.58.1.8.99-.86,1.65-.89,1.48-.16-2.8,2.17-5.79,4.07-8.32,7.25-.15.71.12,1.26-.09,2-1.43,1.1-1.69,2.42-1.89,3.47,1.42-.52,3.4-3.03,5.72-4.91.56.02.92.46,2.07-.85.46-1.57-1.33-.23-1.72-.77,1.98-2.51,5.26-4.31,6.96-4.37.03,1.63-2.34,2.55-4.05,3.89-1.4,2.28-1.2,4.02-4.69,7.12-.28.71.41.21.52.79-.33.78-1.35,1.31-1.46,1.79,2.25-2.2,3.67-1.71,3.1.68.49.02,1.17-.48,1.41.24-.4,1.13-1.49,1.22-1.86,2.38.89,1.49,3.21-1.23,4.55-.97-.46.69-1.16.53-1.15.97.37-.09.99-.86,1.19-.45-2.87,3.15-7.2,7.8-10.23,12.65,1.83-2.27,3.79-4.06,5.29-3.84-.23.39-.52.38-.46.61.88-.79,1.62-.85,2.15-.09.62-.15,2.2-.75,1.21.75.21-1.34-.47.17-.41-.52-.61,1.43-1.13,2.87-.68,3.89.69-.42,1.46-1.21,2.12-1.35-1.03,1.47-2.48,2.62-3,4.03.16-.12.9-.9.64-.3-.63,1.29-1.65,2.09-1.8,2.79.93-1.38,1.86-1.66,3-3.45.09.18-.06.47.01.66.36-.98,1-2.17,1.53-2.55.22.27.56.5.23.96-.8.64-1.63,1.76-2.35,2.24.9.09,2.14-1.86,2.93-.88-.88,1.06-1.69,2.27-2.42,2.88.12.22.4-.03.28.27-.46.65-1.39.75-1.48,1.33.79-.02,1.59-.61,2.45-1.25.85-.64,1.77-1.33,2.62-1.53.15.2-.34.61-.1.79.22-.18.52-.96.69-.71-.74.59.2,1.31.47.86-.17-.42-.45-.02-.63-.44.27-.63.41-1.22.94-1.02-1.46,1.32.62.46.18,1.45-.51.29-1.64,1.28-1.55,1.95,1.56-1.87,3-1.55,4.57-2.4.51.15,3.32.85,3.54,1.28,2.33.77,9.06-12.06,28.04-21.69,14.02-5.87,29.36-7.13,43.79-7.2,4.09-.02,8.11.14,12.08.43-.34.49-.67.98-1,1.47-6.93,10.24-12.99,21.08-18.7,32.08-19.36,2.47-40.88,7.92-55.21,14.76,0,0,.04,0,.09.02-.2.1-.39.2-.56.31-.79.48-1.65,1.08-2.03,1.68-1.16.72-2.95,1.48-3.49,2.22.08.77,1.42.14,1.59,1.09.64-.17,1.51-.7,1.82-.33-.24.45.03.88-.96,1.35.44.08-.03.37-.31.62,3.07-1.38,6.38-3.02,9.82-4.73.14.06.28.11.42.17-3.04,1.6-6.15,3.32-9.14,5.08-.46.4-.19.77-1.03,1.18.07.06.3-.15.36-.07-.38.36-1.14.74-1.47,1.1.23.4,1.09-.29,1.69-.5.08.16-.7.36-.62.51.22.1.02.31.52-.02.18.03-.31.56-.2.77.16.17.42.15.64.2-.64,1.06-2.54,1.98-3.99,2.77.32-.1.74-.37,1.05-.45-.18.34-.31.3-.67.43-.21.56-1.31,1.19-1.92,1.8.86-.44,2.4-1.7,3.53-2-.03.23.11.45.33.53,2.68-1.11,6.1-3.46,8.67-4.8.43-.2.64-.05.96-.09,1.6-.85,3.22-1.67,4.84-2.47.5.82-1.84,2.04-3.32,2.52-.25.93-2.53,1.81-2.77,2.76.37.16.8.22,1.45-.08-.33.36-1.14.62-1.5.68-.25.42-1.43,1.24-2,1.33-1.18.91-2.27,1.82-3.3,2.75.23.08.88-.62,1.02-.4-.45.58-1.65,1.19-1.69,1.78.3-.11.62-.26.98-.46-.43.67-2.02,1.4-2.6,2.09,4.29-1.83,10.2-5.45,15.51-8.13.1,1.21-2.37,1.36-3.76,2.34-.41.98-2.63,1.9-4.55,3.07-2.85,1.73-6.31,3.59-8.31,5.2-.51.41-1,.9-1.17,1.36,3.28-1.99,7.19-4.57,10.87-6.71.3.03-.03.5.03.7.3-.02.88-.52,1.17-.51-.42.43-1.21.58-1.72.82,1.14-.15,2.35-.42,4.1-1.55-.31.58-1.28,1.6-1.72,2.35.13.7,1,.67,1.45,1.13,1.05-.61,2.13-.69,3.07-1.08,1.51-.63,3.42-1.76,5.28-2.71,1.38-.71,2.72-1.36,4.03-1.97.06-.01.12-.03.19-.06,7.57-3.61,15.8-6.18,24.27-7.97-6.36,12.98-12.45,26.11-19.17,38.91-3.36,6.41-6.15,12.49-9.72,18.58-.24.39-.49.8-.74,1.24-.4.67-.81,1.33-1.24,2-5.8,9.08-13.96,20.78-23.91,25.92-2.08,1.08-1.48,1.35-.08,1.32-1.39,1.01-2.81,1.96-4.37,2.89.01.02.02.03.02.05-.06.01-.12.03-.17.04-.13.08-.26.16-.39.23-.03.16-.07.32-.12.49,1.6-.46,3.35-.99,5.56-1.47,0,.21.52.34-.64.72.58.11,3.69-1.1,4.03-.94,3.59-1.71,6.42-2.7,9.22-4.05.56-.11,1.12-.22,1.68-.34-1.74.76-4.19,1.63-3.82,2.04-1.61.36-3.72,1.31-5.78,2.12-2.05.82-4.04,1.5-5.23,1.52-2.38.94-3.77,1.32-5.67,1.64-.4.53-1.01,1.1-1.96,1.74.63.15.93.45.93.88.25-.1.51-.2.78-.3-.53.57,3.12-.48,3.45-.29,1.6-.64,3.5-1.09,4.05-1.41.96-.29.76,0,.93.1,3.28-1.45,5.74-1.68,7.94-3.16.91-.05-2.14,1.5-6.01,2.83-3.85,1.37-8.51,2.33-10.25,2.41-.31.15-.66.28-1.03.38-.09.18-.2.37-.36.58-.81,1.05-2.56,2.44-5.25,3.85,1.49-.43,2.68-.75,3.25-.78-3.64,1.02-4.55,1.4-4.63,2.07,2.83-.69,7.21-2.13,11.15-3.86,3.95-1.71,7.48-3.65,9.11-4.39-2.52,1.68-6.42,3.89-10.45,5.51-4.01,1.67-8.1,2.75-10.6,3.06-2.66,1.22-3.32,1.74-2.61,1.94.7.18,2.76,0,5.37-.56,2.61-.55,5.75-1.5,8.62-2.6,2.88-1.09,5.47-2.32,7.15-3.14-.34.17-1.87,1.09-1.48.93,4.93-2.04,11.49-6.01,17.68-11.31,9.63-7.83,22.81-25.58,22.78-25.68,0,0-.03-.02-.06-.05,5.7-7.67,11.2-17.72,15.53-25.43,7.22-12.85,14.9-26.31,21.46-39.55,4.78-.31,9.52-.45,14.13-.49,24.24-.19,50.63,3.82,73.31,13.65.11.07.21.15.31.23.01-.03.01-.06.01-.09.77.33,1.53.68,2.29,1.02.14.13.27.25.4.38,0-.07.02-.12.03-.18,1.43.66,2.84,1.34,4.23,2.05,4.15,2.11-2.61-2.83-3.19-3.24-.5-.35-1-.71-1.51-1.06-.27-.31-.76-.66-.96-.95-.9-.59-1.55-.84-2.51-1.46-.08-.5.93.08.71-.3-.51-.39-.32-.67-.64-1.03.4-.21,1.13.01,1.94.36-.5-.55,1.16-.84.35-1.47,0-.08-.12-.11-.13-.08-3.01-1.77-6.72-4.53-10.48-6.23-.06-.09-.22-.37.22-.1-.45-.47-1.7-.85-1.53-1.15-2.5-1.25-5.85-2.43-6.81-3.53-6.07-2.62-14.02-5.03-21.99-7.45-3.59-1.1-7.59-1.82-10.25-2.63-.55-.17-1.05-.51-1.61-.68-1.63-.49-4.04-.82-6.11-1.24-.04,0-.08-.02-.13-.02-6.49-1.55-13.34-2.53-20.9-2.78,5.14-10.05,10.53-19.97,16.43-29.59,5.22.88,10.47,1.88,15.8,2.93,6.03,1.47,11.33,2.8,13.99,3.36,7.29,1.53,14.65,3.83,22.17,5.98,7.51,2.15,15.23,4,22.98,4.33,7.75.38,15.46-.78,22.96-3.2-3.59.48-7.2.68-10.8.56ZM20.58,183.26c-1.22.16-5.29,1.43-6.54,1.41.58-.25,2.33-.68,3.87-1.05,1.54-.36,2.87-.64,2.67-.36ZM16.74,181.73c2.8-1.02,5.52-1.59,7.73-2.41-2,1.1-4.58,1.81-7.73,2.41ZM25.28,179.15c2.84-1.21,1.18.17,1.84.22-2.73.94-.36-.23-1.84-.22ZM29.51,180c-1.21.55-2.42.98-2.7.84,1.66-.33,3.58-1.7,5.4-2.2-.3.16-1.49.82-2.7,1.36ZM37.09,179.01c-1.34.66-1.82.69-1.74.33,1.27-.69,1.47-.64,1.63-.55,1.21-.82,2.73-1.94,3.04-1.51-1.16.67-2.87,1.5-2.93,1.74Z"/><path class="cls-1" d="M26.8,93.32c.38-.18.31-.34.63-.51-.22-.02-.7.39-.95.41-.02.25.35-.14.32.1Z"/><path class="cls-1" d="M188.44,97c-.02.15.64.42.89.62,1.51,1.14,3.23,2.38,4.18,3.54-.16-.72-2.49-2.38-3.89-3.44l-1.18-.73Z"/><path class="cls-1" d="M11.7,187.27c-.47.15-.95.29-1.49.39,1.28-.12,2.35-.27,3.23-.53.03-.07.06-.14.09-.21l-1.82.34Z"/><path class="cls-1" d="M9.68,183.8c-.61.18-1.72.95.11.74-.27-.25.13-.48,1.55-.76l.11.62c1.28-.18,2.28-.31,3.17-.46.33-.44.52-.85.64-1.25-1.9.55-3.59.99-5.58,1.11Z"/><path class="cls-1" d="M11.92,182.41c.15.21.6.32,1.69.18.1-.16,1.11-.37,2.18-.62.05-.03.1-.06.16-.09-.19-.26-2.11.2-4.02.54Z"/><path class="cls-1" d="M11.7,187.27c.37-.12.73-.25,1.1-.4-2.43.38-6.27,1.12-4.48,1.01.72-.04,1.34-.12,1.89-.22-.33.03-.66.06-1.02.08l2.51-.47Z"/><path class="cls-1" d="M13.57,186.76c-.01.05-.02.11-.04.17l.95-.18c.39-.14-.08-.11-.9,0Z"/><path class="cls-1" d="M13.59,186.56c-.27.11-.53.21-.78.31.28-.04.54-.08.77-.11.01-.07.02-.13.02-.2Z"/><path class="cls-1" d="M150.91,12.36c-.92-.19-2.64,1.32-5.38,2.84,1.1-.45,1.9-.73,5.38-2.84Z"/></g></svg>