<svg preserveAspectRatio="none" width="100%" height="100%" overflow="visible" style="display: block;" viewBox="0 0 36 36" fill="none" xmlns="http://www.w3.org/2000/svg">
<g id="Icon">
<path id="Vector" fill-rule="evenodd" clip-rule="evenodd" d="M18 0C8.06 0 0 8.06 0 18C0 27.94 8.06 36 18 36C27.94 36 36 27.94 36 18C36 8.06 27.94 0 18 0Z" fill="var(--fill-0, #CFAE70)"/>
<path id="Vector_2" fill-rule="evenodd" clip-rule="evenodd" d="M24.1 14.32C22.06 12.36 17.95 10.91 14.37 10.08C10.46 9.19 10.93 8.43 9 9.04C7.68 9.46 7.33 11.97 8.59 13.74C9.51 15.03 9.67 17.53 10.21 20.06C11.36 25.46 15.93 32.16 23.3 29.59C30.57 27.05 29.49 19.49 24.1 14.33V14.32ZM22.73 28.28C16.57 30.43 13.04 24.77 11.8 20.33C9.79 13.11 12.31 17.62 12.8 18.98C13.86 21.94 16.19 29.1 22 26.92C24.53 25.97 25.64 23.2 26.01 21.64C26.62 24.27 25.97 27.16 22.74 28.28H22.73Z" fill="var(--fill-0, white)"/>
</g>
</svg>
