<?xml version="1.0" encoding="UTF-8"?>
<svg id="Layer_2" data-name="Layer 2" xmlns="http://www.w3.org/2000/svg" viewBox="0 0 413.72 154.76">
  <defs>
    <style>
      .cls-1 {
        fill: #fff;
      }
    </style>
  </defs>
  <g id="LOGOS">
    <g>
      <g>
        <polygon class="cls-1" points="309.79 38.14 324.06 21.69 316.19 21.69 316.19 0 303.06 0 303.06 21.84 294.7 21.99 309.79 38.14"/>
        <polygon class="cls-1" points="309.79 73.62 324.06 90.07 316.19 90.07 316.19 111.76 303.06 111.76 303.06 89.92 294.7 89.77 309.79 73.62"/>
        <path class="cls-1" d="M18.45,104.02c-4.3-2-8-4.73-11.1-8.19v11.19H0V39.57h5.46c7.11,0,13.2,2.52,18.27,7.57,5.08,5.05,7.61,11.12,7.61,18.23,0,5.85-1.79,11.08-5.37,15.68-3.58,4.6-8.12,7.68-13.61,9.23,2.39,2.93,5.3,5.21,8.73,6.85,3.43,1.64,7.09,2.47,10.97,2.47v7.43c-4.77,0-9.31-1-13.61-3ZM19.17,53.03c-3.17-3.52-7.1-5.49-11.82-5.91v36.63c4.65-.48,8.58-2.48,11.77-6,3.19-3.52,4.79-7.64,4.79-12.36s-1.58-8.84-4.74-12.36Z"/>
        <path class="cls-1" d="M48.28,91.06v8.47h25.34v7.34h-32.78v-15.81h-4.3v-7.43h4.3v-44.13h33.22v7.34h-25.79v36.79h25.79v7.43h-25.79Z"/>
        <path class="cls-1" d="M103.08,107.02v-47.73l-15.93-9.49v57.22h-7.34V36.8l23.28,13.88v-11.1h7.35v67.45h-7.35Z"/>
        <path class="cls-1" d="M143.71,96.91c-6.48,6.57-14.31,9.94-23.5,10.12h-3.67V39.59h3.67c9.19.18,17.03,3.55,23.5,10.12,6.48,6.57,9.72,14.42,9.72,23.55s-3.24,17.08-9.72,23.64ZM139.72,56.25c-4.18-4.95-9.46-7.94-15.85-8.95v52.03c6.39-1.01,11.67-4,15.85-8.96,4.18-4.95,6.27-10.65,6.27-17.1s-2.09-12.06-6.27-17.02Z"/>
        <path class="cls-1" d="M170.25,91.06v8.47h25.34v7.34h-32.78v-15.81h-4.3v-7.43h4.3v-44.13h33.22v7.34h-25.79v36.79h25.79v7.43h-25.79Z"/>
        <path class="cls-1" d="M212.08,99.59h23.64v7.43h-35.37l29.1-60h-23.1v-7.43h34.83l-29.1,60Z"/>
        <path class="cls-1" d="M272.52,107.02h-6.98l-21.31-67.43h7.79l17.02,54.8,17.01-54.8h7.79l-21.32,67.43Z"/>
        <path class="cls-1" d="M363.89,106.86h-1.93c-9.14-.12-16.95-3.48-23.42-10.07-6.48-6.6-9.72-14.46-9.72-23.6v-33.76h7.34v33.76c0,6.39,2.1,12.06,6.31,17.02,4.21,4.96,9.48,7.94,15.81,8.95v-59.73h7.43v67.52c-.6-.06-1.21-.09-1.83-.09Z"/>
        <path class="cls-1" d="M407.18,100.29c-4.36,4.39-9.64,6.58-15.85,6.58-4.54,0-8.72-1.3-12.54-3.9-3.82-2.6-6.6-6.01-8.33-10.25l6.89-2.69c1.13,2.8,2.97,5.09,5.51,6.85,2.53,1.76,5.35,2.64,8.46,2.64,4.12,0,7.66-1.48,10.61-4.44,2.95-2.96,4.43-6.5,4.43-10.62,0-1.91-.37-3.57-1.12-4.97-.74-1.4-1.78-2.64-3.09-3.72-.95-.84-2.09-1.61-3.4-2.33-1.31-.72-2.71-1.43-4.2-2.15-.78-.41-1.55-.8-2.33-1.16-.77-.36-1.58-.72-2.41-1.07-.18-.06-.37-.14-.58-.23-.21-.09-.4-.19-.58-.31-3.1-1.37-5.94-3.08-8.5-5.11-2.56-2.03-3.85-5.02-3.85-8.96s1.48-7.65,4.43-10.57c2.95-2.93,6.49-4.39,10.61-4.39,3.4,0,6.48,1.07,9.22,3.22,2.74,2.15,4.51,4.89,5.28,8.24l-7.17,1.7c-.42-1.73-1.31-3.13-2.69-4.21-1.37-1.07-2.93-1.61-4.65-1.61-2.09,0-3.88.75-5.38,2.24-1.49,1.5-2.24,3.29-2.24,5.38,0,.9.19,1.69.58,2.38.39.69.91,1.27,1.56,1.75.83.72,1.88,1.37,3.13,1.97,1.25.6,2.53,1.2,3.85,1.79.72.36,1.42.69,2.1.99.69.3,1.39.63,2.1.98,1.84.9,3.61,1.81,5.28,2.73,1.67.93,3.19,1.96,4.57,3.09,2.08,1.73,3.74,3.75,4.97,6.05,1.22,2.3,1.84,5.06,1.84,8.29,0,6.16-2.18,11.43-6.54,15.82Z"/>
        <path class="cls-1" d="M309.36,70.48c-8.05,0-14.61-6.55-14.61-14.61s6.55-14.6,14.61-14.6,14.61,6.55,14.61,14.6-6.55,14.61-14.61,14.61ZM309.36,48.49c-4.07,0-7.39,3.31-7.39,7.38s3.31,7.39,7.39,7.39,7.39-3.31,7.39-7.39-3.31-7.38-7.39-7.38Z"/>
      </g>
      <g>
        <path class="cls-1" d="M308.45,138.23h10.18v3.94h-10.18v8.64h12.35v3.94h-16.71v-27.87h16.71v3.91h-12.35v7.44Z"/>
        <path class="cls-1" d="M349.49,148.79h-9.91l-2.37,5.97h-4.81l12.13-29.14,12.09,29.14h-4.77l-2.37-5.97ZM347.92,144.88l-3.38-8.49-3.38,8.49h6.76Z"/>
        <path class="cls-1" d="M383.14,149.16c-.79,2.7-3.23,4.85-6.27,5.45-.56.11-1.13.15-1.69.15-1.13,0-2.25-.19-3.31-.6-1.76-.71-3.3-1.88-4.62-3.57l3.46-2.7c.79,1.05,1.73,1.8,2.74,2.18.82.34,1.73.41,2.55.23,1.43-.26,2.59-1.2,2.93-2.33.38-1.28-.49-2.4-1.28-3.16-1.24-1.16-3.27-3.15-3.42-3.3l-3.42-3.23c-1.05-1.01-1.77-2.14-2.14-3.34-.38-1.16-.41-2.4-.08-3.53.34-1.2,1.05-2.25,2.06-3.12.94-.79,2.1-1.35,3.34-1.58,1.35-.3,2.78-.19,4.13.3,1.42.56,2.7,1.5,3.79,2.82l-3.42,2.74c-1.43-1.73-2.89-1.73-3.68-1.58-.98.19-1.8.83-2.03,1.62-.15.53-.11,1.39,1.05,2.52l4.66,4.47c.67.68,1.5,1.46,2.1,2.03,1.2,1.09,2.03,2.33,2.44,3.64.41,1.28.45,2.63.07,3.91Z"/>
        <path class="cls-1" d="M413.67,130.8h-7.66v23.96h-4.4v-23.96h-7.66v-3.91h19.72v3.91Z"/>
      </g>
      <rect class="cls-1" y="127.29" width="288.55" height="2.89"/>
    </g>
  </g>
</svg>