<svg width="203" height="200" viewBox="0 0 203 200" fill="none" xmlns="http://www.w3.org/2000/svg">
<path d="M95.708 196.757C42.9355 196.757 0 153.833 0 101.076C0 48.3185 42.9355 5.39529 95.708 5.39529C148.481 5.39529 191.416 48.3185 191.416 101.076C191.416 153.833 148.481 196.757 95.708 196.757ZM95.708 7.4744C44.0793 7.4744 2.0797 49.462 2.0797 101.076C2.0797 152.69 44.0793 194.677 95.708 194.677C147.337 194.677 189.336 152.69 189.336 101.076C189.336 49.462 147.337 7.4744 95.708 7.4744Z" fill="white"/>
<path d="M107.292 200C54.5195 200 11.584 157.077 11.584 104.319C11.584 51.5619 54.5091 8.6387 107.292 8.6387C160.075 8.6387 203 51.5619 203 104.319C203 157.077 160.064 200 107.292 200ZM107.292 10.7178C55.6633 10.7178 13.6533 52.7158 13.6533 104.319C13.6533 155.923 55.6529 197.921 107.282 197.921C158.91 197.921 200.91 155.933 200.91 104.319C200.91 52.7054 158.91 10.7178 107.292 10.7178Z" fill="white"/>
<path d="M103.039 191.101C50.3393 191.101 7.45574 148.241 7.45574 95.5455C7.45574 42.8505 50.3393 0 103.039 0C155.739 0 198.622 42.8609 198.622 95.5559C198.622 148.251 155.749 191.112 103.039 191.112V191.101ZM103.039 1.81922C51.3479 1.81922 9.28588 43.8692 9.28588 95.5559C9.28588 147.243 51.3479 189.293 103.049 189.293C154.751 189.293 196.813 147.243 196.813 95.5559C196.813 43.8692 154.74 1.81922 103.039 1.81922Z" fill="white"/>
<path d="M41.8229 128.073C41.4589 128.073 41.199 127.865 41.199 127.449V125.214C41.199 124.799 41.4069 124.591 41.8229 124.591H44.6305V94.2876H41.9269C41.5629 94.2876 41.3029 94.0797 41.3029 93.6639V91.4289C41.3029 91.013 41.5109 90.8051 41.9269 90.8051H48.062C48.4779 90.8051 48.6859 91.013 48.6859 91.4289L48.6339 95.5351H48.7379C49.8297 93.0922 52.6893 90.4413 57.3687 90.4413C64.2837 90.4413 69.067 95.5351 69.067 103.54C69.067 111.544 64.5436 116.742 57.4207 116.742C52.7933 116.742 50.0377 114.143 48.9459 111.648H48.7899C48.7899 111.648 48.9459 113.312 48.9459 114.039V124.591H52.3254C52.7413 124.591 52.9493 124.799 52.9493 125.214V127.449C52.9493 127.865 52.7413 128.073 52.3254 128.073H41.8229ZM64.814 103.633C64.814 97.7078 61.3305 94.0693 56.8071 94.0693C52.8037 94.0693 48.8523 97.136 48.8523 103.997C48.8523 109.871 52.8037 113.093 56.8071 113.093C61.3825 113.093 64.814 109.351 64.814 103.633Z" fill="white"/>
<path d="M74.1623 116.368C73.7463 116.368 73.4864 116.16 73.4864 115.744V113.509C73.4864 113.093 73.7463 112.885 74.1623 112.885H77.0739V82.5303H74.1623C73.7463 82.5303 73.4864 82.3224 73.4864 81.9065V79.6715C73.4864 79.2557 73.7463 79.0478 74.1623 79.0478H79.9335C80.9733 79.0478 81.3373 79.4636 81.3373 80.3472V112.885H84.0929C84.5088 112.885 84.7688 113.093 84.7688 113.509V115.744C84.7688 116.16 84.5088 116.368 84.0929 116.368H74.1623Z" fill="white"/>
<path d="M109.985 116.368C108.477 116.368 107.75 115.796 107.75 114.185V111.534H107.646C106.71 112.833 103.798 116.784 97.507 116.784C92.6717 116.784 88.9802 114.081 88.9802 109.559C88.9802 103.633 94.6994 101.346 102.914 101.346H107.282V100.671C107.282 95.7326 104.526 94.0693 100.523 94.0693C95.0113 94.0693 92.8796 96.5643 92.6717 96.5643C92.4117 96.6682 92.0997 96.6682 91.8918 96.4083L90.436 94.5891C90.176 94.2772 90.228 94.0174 90.54 93.7575C90.7999 93.4456 93.6595 90.4309 100.679 90.4309C107.698 90.4309 111.597 93.2377 111.597 100.826V112.885H114.509C114.924 112.885 115.132 113.093 115.132 113.509V115.744C115.132 116.16 114.924 116.368 114.509 116.368H109.985ZM107.282 104.829H103.122C97.8189 104.829 93.4515 105.556 93.4515 108.987C93.4515 111.326 95.4793 113.041 98.7028 113.041C103.122 113.041 106.034 110.027 107.282 108.363V104.829Z" fill="white"/>
<path d="M134.994 113.717C135.306 114.029 135.202 114.393 134.89 114.705C134.422 115.12 132.706 116.732 129.638 116.732C124.439 116.732 121.32 113.769 121.32 107.895V94.2773H118.356C117.94 94.2773 117.628 94.0174 117.628 93.6015V91.4705C117.628 91.0546 117.94 90.7947 118.356 90.7947H121.32V85.545C121.32 85.1292 121.58 84.8173 121.995 84.8173H124.907C125.323 84.8173 125.635 85.1292 125.635 85.545V90.7947H132.186C132.602 90.7947 132.914 91.0546 132.914 91.4705V93.6015C132.914 94.0174 132.602 94.2773 132.186 94.2773H125.635V107.791C125.635 111.274 127.247 113.093 130.054 113.093C131.614 113.093 132.602 112.262 132.81 112.054C133.174 111.742 133.486 111.794 133.746 112.106L134.994 113.717Z" fill="white"/>
<path d="M142.221 104.569C142.533 110.494 146.744 113.093 150.851 113.093C155.427 113.093 158.442 110.286 159.17 109.091C159.378 108.727 159.742 108.675 160.054 108.935L161.51 110.338C161.822 110.65 161.874 110.962 161.666 111.274C160.99 112.417 157.454 116.732 150.591 116.732C143.728 116.732 137.853 111.794 137.853 103.477C137.853 95.1609 143.884 90.4309 150.072 90.4309C157.714 90.4309 161.666 95.4208 161.666 103.893C161.666 104.309 161.406 104.569 160.99 104.569H142.221ZM157.454 101.086C157.246 97.136 154.803 94.0693 150.227 94.0693C146.38 94.0693 143.001 96.4083 142.325 101.086H157.454Z" fill="white"/>
<path d="M99.7738 73.8604C99.7738 74.6816 99.2747 75.3262 98.474 75.5757C99.4827 75.8459 100.055 76.6672 100.055 77.5924C100.055 79.2349 98.526 79.6819 97.1534 79.6819H93.8675V71.6773H97.1534C98.5052 71.6773 99.7842 72.3426 99.7842 73.8604H99.7738ZM94.481 75.3054H97.2262C98.1829 75.3054 99.1915 75.0039 99.1915 73.8604C99.1915 72.7169 98.1413 72.1971 97.143 72.1971H94.481V75.3054ZM94.481 79.0894H97.143C98.1517 79.0894 99.4411 78.8503 99.4411 77.582C99.4307 76.3345 98.2973 75.8875 97.2262 75.8875H94.481V79.0894Z" fill="white"/>
<path d="M113.469 79.6819L110.703 76.6464H108.519V79.6819H107.905V71.6773H111.431C113.167 71.6773 114.051 72.9248 114.061 74.1723C114.072 75.4717 113.219 76.6152 111.462 76.6152L114.29 79.6819H113.469ZM108.519 76.0746H111.358C112.751 76.0746 113.375 75.2846 113.386 74.1619C113.396 73.2263 112.751 72.2491 111.431 72.2491H108.529V76.0642L108.519 76.0746Z" fill="white"/>
<path d="M128.047 71.6773V76.6568C128.047 80.8462 121.912 80.8566 121.912 76.6568V71.6773H122.515V76.6568C122.515 80.0977 127.434 80.0873 127.434 76.6568V71.6773H128.047Z" fill="white"/>
<path d="M136.106 79.6819V71.6773H136.709V79.6819H136.106Z" fill="white"/>
<path d="M145.111 71.6773L150.498 78.2993V71.6773H151.101V79.6819H150.862L145.465 73.0703V79.6819H144.851V71.6773H145.111Z" fill="white"/>
</svg>
