<svg preserveAspectRatio="none" width="100%" height="100%" overflow="visible" style="display: block;" viewBox="0 0 40 40" fill="none" xmlns="http://www.w3.org/2000/svg">
<g id="Icon">
<path id="Vector" d="M20 0C8.95556 0 0 8.95556 0 20C0 31.0444 8.95556 40 20 40C31.0444 40 40 31.0444 40 20C40 8.95556 31.0444 0 20 0Z" fill="var(--fill-0, #81246C)"/>
<path id="Vector_2" d="M28.5778 32.6111C28.5778 26.5444 28.5778 24.5778 28.5778 18.5111C28.5778 16.9889 28.5778 15.4556 28.5667 13.9333C28.5667 13.7333 28.5444 13.5222 28.4889 13.3222C28.2778 12.6222 27.9889 11.9556 27.5111 11.3889C26.8778 10.6333 26.0889 10.1444 25.1667 9.83333C24.7333 9.68889 24.2778 9.67778 23.8333 9.64445C23.4222 9.61111 23.1667 9.34444 23.1556 8.92222C23.1444 8.52222 23.1556 8.12222 23.1556 7.72222C23.1556 7.6 23.2 7.54444 23.3111 7.48889C23.6778 7.3 23.9111 7.02222 23.9778 6.6C24.0778 6.03333 23.7444 5.27778 23.0111 5.22222C22.6111 5.18889 22.2111 5.13333 21.8111 5.12222C21.2111 5.1 20.6111 5.12222 20.0222 5.12222C19.2667 5.12222 18.5 5.12222 17.7444 5.12222C17.7444 5.12222 17.7444 5.13333 17.7444 5.14444C17.8333 5.14444 17.9111 5.15556 18 5.16667C18 5.17778 18 5.18889 18 5.2C17.9444 5.2 17.8889 5.2 17.8333 5.2C17.6 5.2 17.3667 5.2 17.1333 5.21111C16.8556 5.22222 16.6111 5.32222 16.4 5.52222C16.1889 5.72222 16.1667 6 16.0889 6.25556C15.9778 6.62222 16.1444 6.9 16.3444 7.16667C16.4222 7.26667 16.5111 7.37778 16.6333 7.43333C16.8778 7.54445 16.9111 7.56667 16.9 7.82222C16.9 8.18889 16.9 8.55556 16.8778 8.92222C16.8667 9.36667 16.5889 9.63333 16.1444 9.63333C15.7222 9.63333 15.3111 9.65556 14.9222 9.82222C14.5556 9.96667 14.1667 10.0556 13.8222 10.2667C13.1778 10.6778 12.6 11.1556 12.2 11.8111C11.7333 12.5889 11.4333 13.4222 11.4333 14.3556C11.4333 22.1333 11.4333 25.8222 11.4333 33.6C11.4333 33.8556 11.4889 34.0889 11.6667 34.2889C11.9667 34.6444 12.2889 34.9444 12.8111 34.8667C12.8111 34.8667 12.8222 34.8667 12.8333 34.8667C13.9778 34.8667 15.1222 34.8667 16.2778 34.8667C19.9 34.8667 23.5333 34.8667 27.1556 34.8667C27.4667 34.8667 27.7667 34.8667 28.0333 34.6556C28.3667 34.4 28.6222 34.1111 28.6111 33.6556C28.6111 33.3 28.6111 32.9444 28.6111 32.5889L28.5778 32.6111ZM16.1444 23.4778C16.1444 22.7 16.7778 22.0667 17.5556 22.0667C18.3333 22.0667 18.9667 22.7 18.9667 23.4778C18.9667 24.2556 18.3333 24.8889 17.5556 24.8889C16.7778 24.8889 16.1444 24.2556 16.1444 23.4778ZM18.0333 26.7778C18.0333 26 18.6667 25.3667 19.4444 25.3667C20.2222 25.3667 20.8556 26 20.8556 26.7778C20.8556 27.5556 20.2222 28.1889 19.4444 28.1889C18.6667 28.1889 18.0333 27.5556 18.0333 26.7778ZM21.7778 20.3667C21.8222 20.6333 21.8222 20.9111 21.8222 21.1778H20.8778C20.8778 20.6222 20.8111 20.0778 20.6667 19.5444C20.5 18.9556 20.2222 18.4889 19.8556 18.1778C19.6556 18.0111 19.6333 17.7111 19.8 17.5111C19.9111 17.3889 20 17.3556 20.1667 17.3444C20.2778 17.3444 20.3778 17.3889 20.4667 17.4556C20.7667 17.7 21 18.0111 21.2 18.3444C21.6778 17.7889 22.1444 17.4667 22.6889 17.3667C22.8444 17.3444 22.9556 17.3444 23.0667 17.3333C23.6667 17.3778 24.1111 17.5889 24.5333 17.8333C24.7 17.9333 24.8444 18.0556 24.9889 18.1667C25.1444 18.3 25.1556 18.3111 25.1667 18.3222C25.3111 18.4667 25.3444 18.6778 25.2667 18.8667C25.1889 19.0111 25.1556 19.0778 25.1111 19.1444C24.9889 19.3444 24.8444 19.5444 24.6889 19.7222C24.2778 20.1889 23.8111 20.5222 23.2667 20.6111C22.7111 20.7 22.2556 20.5667 21.8 20.3444L21.7778 20.3667ZM22.7556 23.4778C22.7556 24.2556 22.1222 24.8889 21.3444 24.8889C20.5667 24.8889 19.9333 24.2556 19.9333 23.4778C19.9333 22.7 20.5667 22.0667 21.3444 22.0667C22.1222 22.0667 22.7556 22.7 22.7556 23.4778ZM21.3333 31.5C20.5556 31.5 19.9222 30.8667 19.9222 30.0889C19.9222 29.3111 20.5556 28.6778 21.3333 28.6778C22.1111 28.6778 22.7444 29.3111 22.7444 30.0889C22.7444 30.8667 22.1111 31.5 21.3333 31.5ZM23.2222 28.2C22.4444 28.2 21.8111 27.5667 21.8111 26.7889C21.8111 26.0111 22.4444 25.3778 23.2222 25.3778C24 25.3778 24.6333 26.0111 24.6333 26.7889C24.6333 27.5667 24 28.2 23.2222 28.2ZM25.1111 24.8889C24.3333 24.8889 23.7 24.2556 23.7 23.4778C23.7 22.7 24.3333 22.0667 25.1111 22.0667C25.8889 22.0667 26.5222 22.7 26.5222 23.4778C26.5222 24.2556 25.8889 24.8889 25.1111 24.8889ZM26.9444 16.6C23.2222 16.6 19.5 16.6 15.7778 16.6111C15.3444 16.6111 14.9111 16.6111 14.4778 16.6111C14.3444 16.6111 14.2667 16.6667 14.2667 16.8C14.2667 16.9444 14.2667 17.0889 14.2667 17.2333C14.2667 18.2111 14.2444 19.1889 14.2444 20.1667C14.2444 25.7222 14.2444 27.1778 14.2444 32.7222C14.2444 32.8889 14.2444 33.0444 14.2444 33.2111C14.2444 33.3111 14.2222 33.3556 14.1111 33.3556C13.7556 33.3556 13.4 33.3556 13.0444 33.3556C12.9556 33.3556 12.9111 33.3222 12.9222 33.2333C12.9222 33.1778 12.9222 33.1111 12.9222 33.0556C12.9222 25.7444 12.9222 22.5333 12.9222 15.2222C12.9222 14.9222 12.9222 14.6333 12.9222 14.3333C12.9889 13.0889 13.5667 12.1667 14.6444 11.5778C15.1667 11.2889 15.7333 11.2111 16.3222 11.1556C16.9333 11.1 17.4889 10.8667 17.8889 10.3444C18.2222 9.88889 18.3778 9.4 18.3889 8.84445C18.3889 8.51111 18.3889 8.16667 18.3889 7.83333C18.3889 7.73333 18.4222 7.68889 18.5222 7.68889C18.9889 7.68889 19.4556 7.68889 19.9111 7.68889C20.4111 7.68889 20.9111 7.68889 21.4111 7.68889C21.5556 7.68889 21.6111 7.73333 21.6111 7.88889C21.6 8.23333 21.6111 8.57778 21.6 8.92222C21.5778 9.47778 21.7778 9.96667 22.1222 10.3778C22.3444 10.6444 22.5778 10.9778 23 10.9889C23.0333 10.9889 23.0778 11.0556 23.1111 11.1C23.1111 11.1111 23.1 11.1333 23.0889 11.1444C23.2778 11.1444 23.4778 11.1778 23.6667 11.1667C24.1556 11.1444 24.6222 11.2556 25.0556 11.4333C25.5444 11.6333 26.0111 11.9222 26.3111 12.3889C26.4667 12.6333 26.6444 12.8556 26.7667 13.1111C26.8778 13.3333 26.9889 13.5778 27 13.8222C27.0333 14.7222 27.0333 15.6222 27.0333 16.5222C27.0333 16.5556 26.9667 16.6333 26.9222 16.6333L26.9444 16.6Z" fill="var(--fill-0, white)"/>
</g>
</svg>
