<svg preserveAspectRatio="none" width="100%" height="100%" overflow="visible" style="display: block;" viewBox="0 0 40 40" fill="none" xmlns="http://www.w3.org/2000/svg">
<g id="Icon">
<path id="Vector" d="M40 20C40 31.0444 31.0444 40 20 40C8.95556 40 0 31.0444 0 20C0 8.95556 8.95556 0 20 0C31.0444 0 40 8.95556 40 20Z" fill="var(--fill-0, #1C75BC)"/>
<path id="Vector_2" d="M33.9889 21.2778C34.9111 21.9556 35.8889 22.5778 36.8444 23.2222V22.8889C36.0889 21.8444 35.3333 20.8111 34.5889 19.7667C33.9444 18.8667 33.1111 18.6111 32.0778 18.9778C30.7667 19.4444 29.4556 19.9333 28.0778 20.4333C27.9222 20.1222 27.7889 19.8667 28.3778 19.5889C30.3667 18.6667 31.8667 17.1556 33.0778 15.3556C33.8556 14.2111 33.9 13.0333 33.0444 11.9111C32.4667 11.1556 31.9 10.3444 31.1667 9.77778C30.5333 9.3 29.6222 8.98889 28.8889 8.84444C28.1444 8.7 27 8.58889 26.0111 8.68889C25.0222 8.78889 22.9 9.28889 21.3556 9.51111C21.2778 9.52222 21.2 9.55555 21.0111 9.61111C23.4667 10.3222 25.5667 10.8778 27.1333 11.4889C27.1111 11.5889 27.0778 11.6778 27.0556 11.7778C25.3333 12.1667 23.5556 12.4444 21.7556 12.7C22.6 13.6444 24.0889 14.0667 25.9778 14.2C26.5778 14.2444 27.9444 14.2333 28.4444 14.2667C29.1444 14.3111 29.4556 14.6667 29.1556 15.3222C28.6778 16.3556 27.9778 17.6444 27.4444 18.6889C26.7556 17.7778 26.3667 17.4333 25.6778 16.9444C23.5444 15.4222 16.7111 15.3556 14.4444 16.8444C13.6556 17.3556 12.9778 17.8778 12.7111 18.5111C12.1222 17.3222 11.6 16.3 11.1 15.2667C11.1 15.2556 11.0778 15.2222 11.0667 15.2111C10.8556 14.6444 11.1556 14.3222 11.8 14.2778C12.3 14.2444 13.5667 14.2556 14.7556 14.0889C16.2667 13.8778 17.4444 13.8 18.4778 12.8222C16.7444 12.5556 15.2556 12.3111 13.1778 11.8C13.1556 11.7 13.1222 11.6111 13.1 11.5111C15.0889 10.7333 17.1 10.2333 19.2222 9.63333C19.0333 9.57778 18.9556 9.54444 18.8778 9.53333C17.3222 9.31111 15.2111 8.81111 14.2222 8.71111C13.2333 8.61111 12.0889 8.71111 11.3444 8.86667C10.6 9.01111 9.7 9.32222 9.06667 9.8C8.32222 10.3667 7.76667 11.1778 7.18889 11.9333C6.33333 13.0556 6.37778 14.2222 7.15556 15.3778C8.34444 17.2556 10.2444 18.9111 12.3222 19.8111C12.3111 20.0778 12.2889 20.3667 12.2778 20.7444C11.2444 20.3111 10.3 19.9 9.35555 19.5C9.02222 19.3556 8.66667 19.2667 8.33333 19.1222C7.06667 18.6111 5.96667 18.7222 5.17778 19.9667C4.5 21.0222 3.83333 22.0889 3.16667 23.1444C4.24444 22.4333 5.31111 21.6889 6.43333 21.0444C6.86667 20.8 7.47778 20.6222 7.94444 20.7444C9.28889 21.0667 10.5889 21.5556 11.9111 21.9778C11.8889 22.0444 11.8778 22.1111 11.8556 22.1778C10.8667 22.2444 9.86667 22.3 8.88889 22.4C7.27778 22.5667 6.83333 22.9333 6.43333 24.4778C6.12222 25.6444 5.87778 26.8222 5.61111 27.9889C5.68889 28.0222 5.77778 28.0556 5.85556 28.0889C6.24444 27.4778 6.74444 26.9111 7.02222 26.2556C8.02222 23.8889 10.0556 23.6778 12.2111 23.6667C12.3222 23.6667 12.5222 23.8222 12.5333 23.9222C12.5444 24.0222 12.4111 24.2111 12.2889 24.2556C11.6111 24.5111 10.9111 24.7333 10.2222 24.9889C9.34444 25.3333 8.72222 25.9111 8.7 26.9111C8.67778 28.3 8.7 29.7 8.86667 31.1444C9.04444 30.6444 9.22222 30.1444 9.4 29.6444C9.56667 29.1667 9.78889 28.7 9.91111 28.2111C10.2889 26.6556 11.4778 26.0444 12.8667 25.6556C13.0222 25.6111 13.2667 25.6444 13.4 25.7333C13.9111 26.0778 14.4222 26.4222 14.8556 26.8444C15.0111 27 15.0444 27.3889 14.9889 27.6556C14.8 28.6111 14.8444 29.5222 15.2889 30.3778C15.7111 29.4444 16.0778 28.5556 16.5222 27.7C16.6333 27.4778 16.9778 27.3111 17.2333 27.2556C19.1222 26.8778 21.0111 26.8778 22.9111 27.1444C23.1444 27.1778 23.4667 27.3333 23.5667 27.5222C24.0556 28.4222 24.4667 29.3556 24.9111 30.2778C25.6111 29.2667 25.3333 28.0889 25.0667 26.9778C25.6333 26.5556 26.1556 26.1556 26.7 25.7667C26.8 25.6889 26.9778 25.6 27.0667 25.6333C28.0333 26.0444 29.2 26.1667 29.6444 27.3333C30.1556 28.6667 30.6333 30.0222 31.1222 31.3667H31.2889C31.2889 29.9889 31.2889 28.6111 31.2889 27.2333C31.2889 26.0778 30.7444 25.3222 29.6667 24.9556C29.1111 24.7667 28.5444 24.5889 28 24.3667C27.8778 24.3111 27.7667 24.1 27.7444 23.9444C27.7444 23.8778 27.9667 23.7111 28.1 23.7111C30.0556 23.6889 31.8556 23.9667 32.8111 26.0444C33.1667 26.8222 33.7111 27.5222 34.1556 28.2556C34.2444 28.2222 34.3333 28.2 34.4333 28.1667C34.0111 26.6111 33.6556 25.0444 33.1556 23.5111C32.8444 22.5556 31.8444 22.5444 31.0333 22.4222C30.0889 22.2889 29.1333 22.2667 28.1111 22.0333C29.1222 21.6444 30.1444 21.2667 31.1667 20.8889C32.1889 20.5111 33.1333 20.6556 34.0333 21.3111" fill="var(--fill-0, white)"/>
</g>
</svg>
