<svg preserveAspectRatio="none" width="100%" height="100%" overflow="visible" style="display: block;" viewBox="0 0 40 40" fill="none" xmlns="http://www.w3.org/2000/svg">
<g id="Icon">
<path id="Vector" d="M40 20C40 31.0444 31.0444 40 20 40C8.95556 40 0 31.0444 0 20C0 8.95556 8.95556 0 20 0C31.0444 0 40 8.95556 40 20Z" fill="var(--fill-0, #5AC6E6)"/>
<path id="Vector_2" d="M23.6333 14.5333C22.6444 13.0556 21.4111 10.2111 21.9333 7.92222C22.7667 7.66667 23.1 6.98889 22.7444 6.48889C22.4111 6.01111 21.1111 6.1 21.1111 6.1L19.5222 6.13333L18.0667 6.1C18.0667 6.1 16.7778 6.01111 16.4333 6.48889C16.0778 6.98889 16.4111 7.67778 17.2444 7.93333C17.7667 10.2222 16.5222 13.0667 15.5444 14.5444C14.9 15.5111 14.0667 16.5333 14.0667 18.4222C14.0667 19.0778 14.1111 30.8333 14.1111 30.8333C14.1111 32.9 15.5444 33.9444 18.3667 33.9444H19.6444H20.7889C23.6111 33.9444 25.0444 32.9 25.0444 30.8333C25.0444 30.8333 25.0889 19.0778 25.0889 18.4222C25.0889 16.5333 24.2556 15.5222 23.6111 14.5556" fill="var(--fill-0, white)"/>
</g>
</svg>
