<svg preserveAspectRatio="none" width="100%" height="100%" overflow="visible" style="display: block;" viewBox="0 0 40 40" fill="none" xmlns="http://www.w3.org/2000/svg">
<g id="Icon">
<path id="Vector" d="M40 20C40 31.0444 31.0444 40 20 40C8.95556 40 0 31.0444 0 20C0 8.95556 8.95556 0 20 0C31.0444 0 40 8.95556 40 20Z" fill="var(--fill-0, #FFC828)"/>
<path id="Vector_2" d="M31.0111 18.7222C30.4111 17.5 29.6556 16.3667 28.7778 15.3222C28.3 14.7556 27.7889 14.2333 27.1 13.9111C26.1667 14.7889 25.2444 15.6667 24.3222 16.5333C24.2333 16.6111 24.1 16.7111 24 16.7C23.5444 16.6667 23.0889 16.6444 22.6556 16.5444C22.1889 16.4333 21.7333 16.2556 21.2667 16.1C20.9333 17.4 20.5889 18.7111 20.2444 20.0778C20.1778 20.0778 20.0333 20.1222 19.9222 20.0778C19.5222 19.9556 19.1111 19.8444 18.7333 19.6556C18.2222 19.4 17.7556 19.0667 17.2444 18.8111C16.8667 18.6111 16.4889 18.3667 16.0222 18.3667C15.9333 19.2667 15.8444 20.1333 15.7667 20.9889C14.8778 20.8333 14.0667 20.6889 13.1778 20.5333C13.0111 21.1333 12.8667 21.7111 12.7 22.2889C12.6222 22.5444 12.5222 22.8111 12.4 23.0556C12.2778 23.3111 12.0667 23.4 11.7889 23.3444C11.5667 23.3111 11.3444 23.2889 11.0111 23.2556C11.3778 24.1778 11.6889 25.0333 12.0556 25.8667C12.5222 26.9333 13.2222 27.8778 13.9222 28.8C15.1333 30.3778 16.4778 31.8222 18.1889 32.8889C20.2 34.1333 22.3444 34.5333 24.6111 33.8C27.1444 32.9778 29.2333 31.4889 30.8111 29.3222C31.7222 28.0778 32.2333 26.6667 32.3778 25.1333C32.6 22.8667 32 20.7556 31.0222 18.7444L31.0111 18.7222Z" fill="var(--fill-0, white)"/>
<path id="Vector_3" d="M11.4111 21.6111C11.4556 21.4444 11.4667 21.2667 11.4889 21.0889C11.5667 20.5 11.6444 19.9222 11.7222 19.3333C11.7556 19.1111 11.8667 19.0333 12.1 19.0222C12.8333 19.0222 13.5778 18.9889 14.3889 18.9667C14.3 18.1 14.2 17.2222 14.1 16.2889C14.4222 16.3333 14.7333 16.3444 15.0222 16.4333C15.7222 16.6444 16.4 16.9 17.1 17.1C17.6111 17.2444 18.1333 17.3444 18.5222 17.1778C18.6 15.7444 18.6778 14.4 18.7444 13.0111C19.7667 13.0111 20.7889 13.0222 21.8 13.0111C21.9444 13.0111 22.1333 12.9333 22.2222 12.8333C22.5222 12.5 22.8111 12.1444 23.0667 11.7667C23.4778 11.1556 23.8444 10.5222 24.2444 9.87778C24.1 9.78889 24.0111 9.73333 23.9222 9.67778C22.3111 8.71111 20.5778 8.04444 18.7556 7.62222C16.5778 7.12222 14.4 6.91111 12.2 7.47778C10.7 7.86667 9.6 8.71111 9.1 10.2333C8.62222 11.6889 8.47778 13.1778 8.51111 14.7C8.56667 17.0667 8.98889 19.3556 9.96667 21.5333C10.2444 22.1444 10.2333 22.1333 10.8778 22.0778C11.1889 22.0444 11.3444 21.8889 11.4111 21.6222V21.6111Z" fill="var(--fill-0, white)"/>
</g>
</svg>
