<svg preserveAspectRatio="none" width="100%" height="100%" overflow="visible" style="display: block;" viewBox="0 0 40 40" fill="none" xmlns="http://www.w3.org/2000/svg">
<g id="Icon">
<path id="Vector" d="M40 20C40 31.0444 31.0444 40 20 40C8.95556 40 0 31.0444 0 20C0 8.95556 8.95556 0 20 0C31.0444 0 40 8.95556 40 20Z" fill="var(--fill-0, #08BED5)"/>
<path id="Vector_2" d="M30.4 20.2333C29.8667 20.2222 29.4222 19.7444 29.4333 19.2222C29.4333 18.6889 29.9 18.2444 30.4444 18.2556C30.9889 18.2556 31.4222 18.7111 31.4111 19.2556C31.4111 19.7889 30.9333 20.2444 30.4111 20.2333M35.4333 19.2667C33.8556 17.1778 31.5778 15.4889 29.1444 14.6111C28.8556 14.5 28.0444 14.2889 27.6 14.1889C26.3889 13.8889 25.1556 13.8111 23.9111 13.8222C23.7111 13.8222 23.4556 13.8 23.3111 13.6778C22.6111 13.0444 22.0444 12.5 21.0333 11.9333C20.2667 11.5 19.7 11.2444 19.2222 11.0444C18.7444 10.8444 17.8333 10.6222 17.7889 10.8444C17.7444 11.0667 18.6 13.2889 19.0111 14.5556C16.1 15.3667 13.3333 16.6444 10.8111 18.4556C8.91111 16.5556 4.62222 14.2889 3.98889 14.6889C3.67778 14.8778 4.55556 17.4111 4.54444 20.0111C4.54444 22.6889 3.65556 25.4333 4.12222 25.7444C4.66667 25.8556 8.88889 23.9222 10.7667 22.0667C12.8444 23.6333 15.1222 24.7444 17.5111 25.5444C17.1222 27.0889 15.9 29.0778 16.1444 29.2556C16.3 29.3444 17.5667 28.8111 18.1111 28.5556C18.6556 28.3 19.9889 27.6778 21.3 26.6778C21.4556 26.5556 21.6889 26.5 21.8889 26.5111C22.3111 26.5111 22.7222 26.6 23.1333 26.6222C24.6222 26.7222 26.8333 26.6 28.3556 26.2778C32.0778 25.5 34.2444 23.4778 35.8111 21.2C35.9556 20.9889 36.0778 20.7 36.0778 20.4444C36.0778 20.1889 35.7111 19.6444 35.4333 19.2667Z" fill="var(--fill-0, white)"/>
</g>
</svg>
