<svg preserveAspectRatio="none" width="100%" height="100%" overflow="visible" style="display: block;" viewBox="0 0 40 40" fill="none" xmlns="http://www.w3.org/2000/svg">
<g id="Icon">
<path id="Vector" d="M40 20C40 31.0444 31.0444 40 20 40C8.95556 40 0 31.0444 0 20C0 8.95556 8.95556 0 20 0C31.0444 0 40 8.95556 40 20Z" fill="var(--fill-0, #702573)"/>
<path id="Vector_2" d="M25.4667 31.7667C23.9444 32.1444 22.2889 32.3222 20.4889 32.3222C18.6889 32.3222 16.9111 32.0222 15.3444 31.4333C13.7778 30.8444 12.4333 30.0111 11.3111 28.9333C10.1778 27.8667 9.3 26.5778 8.66667 25.0778C8.03333 23.5778 7.72222 21.9111 7.72222 20.0667C7.72222 18.2222 8.04444 16.5222 8.68889 15.0111C9.33333 13.5 10.2222 12.2111 11.3667 11.1444C12.5 10.0778 13.8444 9.26667 15.3778 8.7C16.9111 8.13333 18.5667 7.84444 20.3333 7.84444C22.1 7.84444 23.8778 8.12222 25.4556 8.67778C27.0333 9.23333 28.3111 9.98889 29.3 10.9333L25.7556 14.9667C25.2 14.3333 24.4889 13.8111 23.5889 13.4111C22.6889 13.0111 21.6667 12.8 20.5333 12.8C19.5444 12.8 18.6333 12.9778 17.8111 13.3333C16.9778 13.7 16.2556 14.2 15.6444 14.8444C15.0333 15.4889 14.5556 16.2556 14.2111 17.1444C13.8667 18.0333 13.7 19 13.7 20.0556C13.7 21.1111 13.8556 22.1111 14.1556 23.0111C14.4667 23.9111 14.9222 24.6778 15.5222 25.3222C16.1222 25.9667 16.8667 26.4667 17.7556 26.8333C18.6444 27.2 19.6556 27.3778 20.7889 27.3778C21.4444 27.3778 22.0667 27.3333 22.6667 27.2333C23.2556 27.1333 23.8111 26.9778 24.3111 26.7556V22.5222H19.8778V17.9889H29.4667V30.3111C28.3333 30.9 27 31.3889 25.4778 31.7556" fill="var(--fill-0, white)"/>
</g>
</svg>
