<svg preserveAspectRatio="none" width="100%" height="100%" overflow="visible" style="display: block;" viewBox="0 0 40 40" fill="none" xmlns="http://www.w3.org/2000/svg">
<g id="Icon">
<g id="Vector">
</g>
<path id="Vector_2" d="M20 0C8.97778 0 0 8.96667 0 20C0 31.0333 8.96667 40 20 40C31.0333 40 40 31.0222 40 20C40 8.97778 31.0222 0 20 0Z" fill="var(--fill-0, #231F20)"/>
<path id="Vector_3" d="M35.4111 24.5444C34.7222 24.5667 34.1444 24.3111 33.6 23.9333C32.9667 23.4889 32.3 23.0778 31.6778 22.6111C30.0222 21.3556 28.2889 21.5222 26.5222 22.2889C26.2333 22.4111 25.9 22.5889 25.9444 22.9889C25.9889 23.3889 26.3444 23.4889 26.6556 23.5444C27.3556 23.6667 28.0667 23.7444 28.7778 23.8333C29.6111 23.9333 30.3778 24.2222 31.0556 24.7C31.1778 24.7889 31.3333 24.8778 31.3111 25.0556C31.2667 25.2778 31.0556 25.2444 30.8889 25.2444C30.3889 25.2556 29.9 25.3889 29.4222 25.4889C28.5111 25.6778 27.6 25.9111 26.6667 25.8778C25.3222 25.8333 24.5778 25.1444 24.4889 23.8C24.4222 22.8222 24.4889 21.8444 24.5667 20.8778C24.7889 18.2 25.1333 15.5444 25.7111 12.9111C25.9333 11.8889 25.3556 11.3778 24.3333 11.6667C23.3444 11.9333 22.5333 12.4889 21.8 13.1889C21.5 13.4778 21.4333 13.7444 21.7333 14.0778C22.0556 14.4444 22.2444 14.8889 22.2889 15.3778C22.4778 17.4667 22.6889 19.5556 22.5889 21.6667C22.4333 24.6889 20.1222 25.4 18.2 25.2C16.5667 25.0222 16.0889 24.3556 16.6667 22.9111C16.6889 22.8667 16.7 22.8333 16.7111 22.7889C16.7556 22.5889 16.8778 22.3667 16.6444 22.2C16.4222 22.0333 16.2333 22.1889 16.0556 22.3111C15.3444 22.8222 14.8667 23.5111 14.5444 24.3C14.1111 25.4 14.3556 26.2333 15.3222 26.9222C16.6556 27.8667 18.1222 28.0111 19.6556 27.5111C20.9333 27.1 21.8889 26.2444 22.7 25.0889C23.2 26.6 24.0667 27.4111 25.5222 27.7C27.5778 28.1222 29.5778 27.6667 31.5667 27.2444C32.9 26.9667 34.1889 26.4889 35.5111 26.1667C36.0333 26.0444 36.4556 25.9333 36.4222 25.3C36.3889 24.6778 35.9444 24.5111 35.4222 24.5333L35.4111 24.5444Z" fill="var(--fill-0, white)"/>
<path id="Vector_4" d="M14.0333 15.0667C13.9667 14.3111 14 13.5444 13.7111 12.8222C13.4 12.0444 12.8222 11.8333 12.1 12.2333C11.2556 12.7 10.8222 13.5333 10.9333 14.5C10.9889 14.9111 11.0556 15.3111 11.1333 15.7111C11.5444 17.8889 11.8889 20.0667 11.8556 22.2889C11.8333 23.2111 11.5889 24.0333 10.6444 24.4111C9.38889 24.9222 8.07778 25.0222 6.75556 24.6889C6.28889 24.5667 5.83333 24.3889 5.7 23.8333C5.56667 23.3 5.95556 23 6.28889 22.7C6.62222 22.4111 6.9 22.0889 6.56667 21.6556C6.22222 21.2 5.78889 21.2667 5.35556 21.5444C4.72222 21.9556 4.23333 22.4889 3.9 23.1667C2.87778 25.2222 3.81111 26.7889 6.08889 26.8444C7.73333 26.8889 9.3 26.4444 10.8889 26.1111C12.6222 25.7333 13.4333 24.6111 13.8111 23.0111C14.2 21.3556 14.2333 19.6667 14.2111 17.9667C14.1444 17 14.1 16.0222 14.0111 15.0444L14.0333 15.0667Z" fill="var(--fill-0, white)"/>
<path id="Vector_5" d="M16.1778 15.9222C16.4 16.0556 16.6333 16.1778 16.8444 16.3222C18.6111 17.4556 20.0222 18.8444 20.3556 21.0444C20.4 21.3333 20.5111 21.6333 20.6556 21.9C20.8444 22.2556 21.0222 22.8111 21.4667 22.7111C21.9111 22.6111 21.6 22.0222 21.7333 21.7111C21.6778 20.2667 21.4444 18.8889 20.8889 17.5778C20.3444 16.2778 19.5444 15.1111 18.8333 13.9111C17.8556 12.2556 17.0667 12.2 15.8111 13.6444C15.0222 14.5556 15.1444 15.3 16.1667 15.9333L16.1778 15.9222Z" fill="var(--fill-0, white)"/>
</g>
</svg>
