<svg preserveAspectRatio="none" width="100%" height="100%" overflow="visible" style="display: block;" viewBox="0 0 40 40" fill="none" xmlns="http://www.w3.org/2000/svg">
<g id="Icon">
<path id="Vector" d="M20 40C31.0457 40 40 31.0457 40 20C40 8.9543 31.0457 0 20 0C8.9543 0 0 8.9543 0 20C0 31.0457 8.9543 40 20 40Z" fill="var(--fill-0, #D43427)"/>
<path id="Vector_2" d="M32.8 5.62222C32.2556 5.22222 27.6 2.12222 24.7778 1.38889C24.2889 1.26667 23.2222 1.12222 23.0778 1.2C22.9333 1.27778 22.6444 1.46667 22.5111 1.54444C22.3667 1.62222 22.0222 1.74444 21.6333 1.62222C21.2444 1.5 20.8778 1.34444 21 1.26667C21.1222 1.18889 21.2444 1.1 21.4111 1.03333C21.5778 0.966667 21.5333 0.755556 20.9222 0.822222C20.3 0.888889 17.4 0.933333 17.2778 0.977778C17.1556 1.02222 16.8667 1.25556 16.7889 1.44444C16.7111 1.63333 16.5222 1.95556 16.4667 2.08889C16.4 2.23333 16.1778 2.35556 16.0556 2.2C15.9333 2.04444 15.6556 1.87778 15.5889 1.87778C15.5222 1.87778 15.0444 1.92222 15.1889 2.27778C15.3222 2.63333 15.5778 2.87778 15.6333 2.96667C15.7222 3.13333 15.8 3.27778 15.6667 3.36667C15.5333 3.45556 15.3889 3.57778 15.3 3.61111C15.2111 3.64444 14.9556 3.72222 14.9889 3.56667C15.0222 3.41111 15.0333 2.97778 15.0222 2.9C15.0111 2.82222 14.7778 2.76667 14.6333 2.7C14.4889 2.63333 14.3667 2.51111 14.3444 2.66667C14.3111 2.82222 14.3 3.06667 14.3556 3.23333C14.4222 3.4 14.3556 3.43333 14.2222 3.43333C14.0889 3.43333 11.6333 3.43333 11.4111 3.44444C11.2 3.45556 11.0556 3.47778 10.9444 3.35556C10.8333 3.23333 10.6111 3.24444 10.5 3.22222C8.34444 4.45556 6.44444 6.08889 4.9 8.02222C4.91111 8.06667 4.92222 8.11111 4.96667 8.14444C5.38889 8.61111 6.35556 9.53333 6.47778 9.74444C6.6 9.95556 6.9 10.5889 6.85556 11.3C6.81111 12.0111 6.64444 13.2778 6.85556 13.8222C7.06667 14.3667 7.48889 14.9556 8.48889 15.5444C8.98889 15.8778 8.95556 16.0111 9.36667 16.6778C9.78889 17.3444 10.4222 18.2778 10.4556 18.4444C10.7111 18.5333 10.9556 18.4 10.9556 18.4C10.9556 18.4 9.65555 16.5111 9.65555 16.3444C9.65555 16.1778 9.94444 16.2222 10.1222 16.3889C10.2889 16.5556 11.5889 18.2 11.6333 18.3667C11.6778 18.5333 12.0556 19.2111 12.0556 19.3333C12.0556 19.4556 12.7222 20.0889 13.0667 20.2111C13.4 20.3333 13.7778 20.6333 14.2889 20.8444C14.7889 21.0556 15.0444 21.0111 15.2111 20.9333C15.3778 20.8444 15.7556 20.8444 16.1333 21.2222C16.5111 21.6 16.8889 21.6444 17.3889 21.6889C17.8889 21.7333 17.9333 22.0222 17.9778 22.1889C18.0222 22.3556 18.4 22.7333 18.5222 22.8222C18.6444 22.9111 18.9444 23.1111 19.2778 23.1556C19.6111 23.2 20.1444 23.0444 20.3667 23.4111C20.7444 24.0444 20.3222 24.7111 19.9889 25.2222C19.6556 25.7222 19.5556 27.1556 20.1111 28.0778C21.5 30.3444 22.2111 29.8 22.7111 30.8111C22.9667 32.0333 22.1667 36.0222 22.0444 36.4778C21.9222 36.9444 21.9222 37.6556 21.8778 38.0778C21.6333 38.5 21.6222 39.0778 21.6222 39.2444C21.8333 39.2222 22.0444 39.2111 22.2556 39.1778C22.4333 39.1111 22.6444 39 22.8889 38.8333C23.2 38.6111 23.6889 38.9222 23.8556 38.7889C24.0222 38.6667 23.9444 38.4111 24.1111 38.2C24.2778 37.9889 24.8667 37.3222 25.1222 37.1444C25.3778 36.9667 25.8111 37.2889 26.2111 36.8111C26.6333 36.3111 26.3333 35.9333 26.6333 35.7556C26.9222 35.5889 27.1333 35.7111 27.3889 35.5889C27.6444 35.4667 28.9444 33.4444 29.2333 33.1111C29.5222 32.7778 29.8667 32.4778 30.2444 32.4C30.6222 32.3111 31.1667 31.9333 31.5 31.4778C31.8333 31.0111 31.6222 29.8778 31.7889 29.4667C31.9556 29.0444 32.6333 28.5 32.9222 28.0778C33.2111 27.6556 33.2556 26.9444 32.4556 26.6889C31.6556 26.4333 29.8111 25.9333 29.5111 25.9333C29.2111 25.9333 28.9667 26.2667 28.8444 26.0222C28.7222 25.7667 28.5889 25.8556 28.4222 25.8556C28.2556 25.8556 28.1667 25.6889 28.2556 25.2667C28.3444 24.8444 28.1333 24.1778 27.9222 24.0889C27.7111 24 27.5 23.7111 26.7889 23.7111C26.0778 23.7111 26.2444 22.9556 25.5333 22.8333C24.8222 22.7111 23.8111 22.2444 23.3444 22.2444C22.8778 22.2444 22.5 21.8222 21.7444 22.2889C20.9889 22.7556 21.1556 22.8333 20.8667 22.8333H19.1444L18.7667 22.5C18.7667 22.5 18.7667 21.6222 18.8111 21.3667C18.8556 21.1111 18.6 20.9 18.3444 20.9444C18.0889 20.9889 17.7111 20.8556 17.5 20.9C17.2889 20.9444 17.2889 20.6444 17.4111 20.4778C17.5333 20.3111 17.7111 20.1333 17.7222 19.9667C17.7333 19.8 17.7667 19.1333 17.1667 19.5222C16.5667 19.9111 16.4 20.0667 16.2667 20.1667C16.1444 20.2778 16.1111 20.3222 15.7889 20.3C15.4667 20.2889 14.4444 19.6556 14.4111 18.8778C14.3778 18.1111 14.6889 17.6333 15.1 17.2889C15.5111 16.9444 16.1 16.6222 16.7333 16.6111C17.3667 16.6 17.8444 16.4222 18.2 16.5444C18.5556 16.6667 18.9667 16.8889 19.0333 17.2222C19.1 17.5667 19.3444 17.8556 19.5111 17.8556C19.6778 17.8556 19.7444 17.6444 19.6778 17.0111C19.6 16.8556 19.3667 16.8556 19.3889 16.5444C19.4 16.2333 19.4667 16.2667 19.6 16.1C19.7333 15.9333 19.8 15.9333 19.8 15.7778C19.8 15.6222 19.8444 15.5333 20.1889 15.3778C20.5333 15.2222 20.4556 15.2444 20.6333 15.1889C20.8111 15.1333 20.9 14.7444 20.9 14.4778C20.9 14.2111 23.0778 11.9333 23.3111 11.8667C23.5444 11.8 23.7222 11.6333 23.9333 11.6667C24.1333 11.7 24.1778 11.7556 24.0556 11.8556C23.9333 11.9444 23.8444 12.0556 23.8444 12.1222C23.8444 12.1889 24.5667 12.2333 24.6667 12.1333C24.7556 12.0444 25.0778 11.6889 25.2333 11.6222C25.3889 11.5556 25.4667 11.1889 25.9111 11.2111C26.3556 11.2222 27.4556 11.2556 27.5889 11.1667C27.7222 11.0778 27.7444 10.9556 27.6 10.7778C27.4667 10.6111 26.9111 9.82222 26.7667 9.83333C26.6222 9.84444 26 10.7556 25.9 10.8556C25.8111 10.9444 25.6222 11.1778 25.3889 11.2222C25.1556 11.2667 24.9222 11.4111 24.8 11.4111C24.6778 11.4111 24.3333 11.3222 24.3333 11.2444C24.3333 11.1667 24.3222 10.4889 24.3222 10.4889H23.7556C23.7556 10.4889 23.7222 10.6 23.6333 10.6444C23.5444 10.6889 23.3222 10.7556 23.1889 10.8111C23.0556 10.8778 22.8333 10.9444 22.8222 10.8556C22.8111 10.7667 23.2111 10.3444 23.3 10.3333C23.3889 10.3222 24.5667 10.2 24.8111 10.2111C25.0556 10.2222 25.3556 10.2556 25.5222 10.2222C25.6889 10.1889 25.8333 9.91111 26.0111 9.86667C26.2 9.82222 26.3333 9.8 26.5333 9.67778C26.7333 9.55556 26.7667 9.15556 26.4111 8.84444C26.0556 8.53333 25.0556 7.52222 24.9333 7.38889C24.8111 7.25556 24.7667 7.03333 24.7667 6.9C24.7667 6.76667 24.5778 6.48889 24.3667 6.48889C24.1556 6.48889 23.7333 6.8 23.7333 7C23.7333 7.2 23.5222 7.23333 23.3889 7.16667C23.2667 7.1 22.3111 5.93333 22.1444 5.85556C21.9778 5.77778 20.4667 5.48889 20.3222 5.64444C20.1889 5.8 20.2778 6.38889 20.3667 6.55556C20.4556 6.72222 20.9667 7.43333 20.9889 7.52222C21 7.61111 20.9222 8.11111 20.6667 8.26667C20.4 8.42222 20.2 8.53333 20.1 8.57778C19.9889 8.62222 20.0222 9.02222 20.1333 9.22222C20.2444 9.42222 20.2667 9.38889 20.0889 9.54444C19.9 9.7 19.4556 9.62222 19.3333 9.54444C19.2111 9.46667 19.3 9.03333 19.2667 8.82222C19.2333 8.61111 18.7444 8.42222 18.3111 8.27778C17.8778 8.14444 16.0556 7.47778 15.8444 7.31111C15.6333 7.14444 15.3333 6.32222 15.6333 6.12222C15.9222 5.92222 16.0778 5.57778 16.2667 5.48889C16.4556 5.4 16.7111 5.37778 16.8889 5.3C17.0667 5.22222 17.6333 4.57778 17.7889 4.34444C17.9444 4.11111 17.8333 4.14444 18.3333 4.13333C18.8222 4.12222 19.2 4.08889 19.2556 3.85556C19.3222 3.62222 19.6222 2.63333 19.7 2.57778C19.7778 2.51111 20.0222 2.26667 20.4667 2.51111C20.9111 2.75556 21.7778 3.18889 21.8111 3.27778C21.8444 3.36667 22.1 3.9 21.8556 4.04444C21.6111 4.2 21.1111 4.35556 21.0333 4.53333C20.9556 4.72222 20.8 4.81111 21.1444 4.82222C21.4889 4.83333 21.8333 4.88889 22.0889 4.95556C22.3333 5.03333 22.7778 5.26667 23.2333 5.44444C23.6778 5.63333 23.7778 5.65556 23.7444 5.53333C23.7111 5.41111 23.2778 5.22222 23.4667 5.22222C23.6556 5.22222 24.2556 5.25556 24.3667 5.25556C24.4778 5.25556 24.5556 5.06667 24.2 4.84444C23.8444 4.61111 23.4556 4.17778 23.5111 4.12222C23.5556 4.05556 24.0556 4.35556 24.2667 4.44444C24.4778 4.53333 24.6111 4.47778 24.7444 4.36667C24.8778 4.25556 24.9444 4.21111 24.9556 4.15556C24.9667 4.08889 24.0333 3.64444 23.7778 3.41111C23.5333 3.17778 23.3889 3.13333 23.4556 3.04444C23.5222 2.95556 23.7667 3.03333 24.0889 3.16667C24.4111 3.3 25.7667 4.38889 25.8667 4.54444C25.9556 4.7 25.7889 4.88889 26.4333 5.01111C27.0778 5.13333 27.2778 5.16667 27.7111 5.52222C28.1444 5.87778 29.1 6.23333 29.3111 6.34444C29.5222 6.45556 29.6667 6.62222 30.3 6.66667C30.9333 6.71111 31.0667 6.77778 31.7556 6.71111C32.4333 6.64444 33.1889 6.51111 33.3 6.4C33.4111 6.28889 33.3444 6.03333 32.8111 5.63333L32.8 5.62222Z" fill="var(--fill-0, white)"/>
<path id="Vector_3" d="M11.4222 2.93333C11.7556 2.97778 12.1667 2.92222 12.4444 2.98889C12.7222 3.05556 13.1444 2.95556 13.1111 2.87778C13.0778 2.8 13.3222 2.78889 13.4222 2.77778C13.5222 2.76667 13.7111 2.51111 13.5667 2.48889C13.4111 2.45556 13.1222 2.44444 13.0444 2.37778C12.9667 2.31111 12.8889 2.34444 12.6778 2.37778C12.4667 2.41111 12.3556 2.47778 12.2444 2.54444C12.1333 2.61111 12.1778 2.63333 11.9222 2.65556C11.7667 2.67778 11.5667 2.68889 11.4333 2.73333C11.4 2.74444 11.3667 2.76667 11.3333 2.77778C11.3222 2.78889 11.3 2.81111 11.3111 2.82222C11.3667 2.93333 11.4222 2.93333 11.4222 2.93333Z" fill="var(--fill-0, white)"/>
<path id="Vector_4" d="M38.6889 16.0444C38.6889 16.0444 38.8222 16.0667 38.9 16.0778C38.7667 15.4222 38.5889 14.7778 38.3889 14.1556C38.3444 14.1556 38.3111 14.1778 38.3111 14.1778C38.2333 14.2778 37.7222 14.5778 37.9556 15.1222C38.1778 15.6667 38.5 16.0333 38.6889 16.0444Z" fill="var(--fill-0, white)"/>
<path id="Vector_5" d="M39.1889 17.9C38.8222 18.2111 37.9444 19.2889 37.7667 19.3667C37.5444 19.4667 37.0667 20.1444 37.0667 20.4444C37.0667 20.7444 36.8222 22.7111 37.0333 22.9111C37.2444 23.1 38.1333 24.2222 38.3444 24.5444C38.4333 24.6889 38.5111 24.9889 38.5667 25.2889C39.0444 23.6 39.3222 21.8333 39.3222 20C39.3222 19.2889 39.2778 18.5889 39.2 17.9H39.1889Z" fill="var(--fill-0, white)"/>
</g>
</svg>
