<svg preserveAspectRatio="none" width="100%" height="100%" overflow="visible" style="display: block;" viewBox="0 0 40 40" fill="none" xmlns="http://www.w3.org/2000/svg">
<g id="Icon">
<path id="Vector" d="M40 20C40 31.0444 31.0444 40 20 40C8.95556 40 0 31.0444 0 20C0 8.95556 8.95556 0 20 0C31.0444 0 40 8.95556 40 20Z" fill="var(--fill-0, #A97C50)"/>
<path id="Vector_2" d="M31.2444 9.47778C31.1111 9.12222 30.9222 8.83333 30.7111 8.58889C30.4889 8.1 30.6333 7.62222 31.0444 7.28889C31.4 6.98889 30.9333 6.42222 30.5444 6.65556C30.0667 6.94444 29.3333 6.83333 28.7778 6.75556C28.5889 6.64444 28.3778 6.54444 28.1556 6.45556C24.0889 4.81111 20.4 8.05556 18.7778 11.5111C17.4889 14.2444 17.2444 17.2222 15.1444 19.5556C13.4 21.4889 11.1111 22.8111 9.62222 24.9889C4.5 32.4778 15.5778 38.1444 20.0889 31.2C22.8889 26.9 21.3222 21.2 26.5444 18.8C30.1889 17.1222 32.7778 13.5333 31.2444 9.48889V9.47778ZM10.4111 26.5111C10.4111 26.0333 10.7889 25.6556 11.2667 25.6556C11.7444 25.6556 12.1222 26.0444 12.1222 26.5111C12.1222 26.9778 11.7333 27.3667 11.2667 27.3667C10.8 27.3667 10.4111 26.9778 10.4111 26.5111ZM11.9222 31.6556C11.3222 31.6556 10.8333 31.1667 10.8333 30.5667C10.8333 29.9667 11.3222 29.4778 11.9222 29.4778C12.5222 29.4778 13.0111 29.9667 13.0111 30.5667C13.0111 31.1667 12.5222 31.6556 11.9222 31.6556ZM13.5778 27.9333C13.2667 27.9333 13.0111 27.6778 13.0111 27.3667C13.0111 27.0556 13.2667 26.8 13.5778 26.8C13.8889 26.8 14.1444 27.0556 14.1444 27.3667C14.1444 27.6778 13.8889 27.9333 13.5778 27.9333ZM27.4 9.12222C28.8111 9.12222 28.8111 11.2889 27.4 11.2889C25.9889 11.2889 25.9889 9.12222 27.4 9.12222ZM28.3333 14.4667C27.0889 14.4667 27.0889 12.5556 28.3333 12.5556C29.5778 12.5556 29.5778 14.4667 28.3333 14.4667Z" fill="var(--fill-0, white)"/>
</g>
</svg>
