<svg preserveAspectRatio="none" width="100%" height="100%" overflow="visible" style="display: block;" viewBox="0 0 40 39.9889" fill="none" xmlns="http://www.w3.org/2000/svg">
<g id="Icon">
<path id="Vector" fill-rule="evenodd" clip-rule="evenodd" d="M20 0C8.95556 0 0 8.95307 0 19.9944C0 31.0358 8.95556 39.9889 20 39.9889C31.0444 39.9889 40 31.0358 40 19.9944C40 8.95307 31.0444 0 20 0Z" fill="var(--fill-0, #CFAE70)"/>
<path id="Vector_2" fill-rule="evenodd" clip-rule="evenodd" d="M26.7778 15.9067C24.5111 13.7295 19.9444 12.1189 15.9667 11.1969C11.6222 10.2083 12.1444 9.36407 10 10.0417C8.53333 10.5082 8.14445 13.2963 9.54445 15.2624C10.5667 16.6954 10.7444 19.4724 11.3444 22.2827C12.6222 28.281 17.7 35.7234 25.8889 32.8686C33.9667 30.0472 32.7667 21.6495 26.7778 15.9178V15.9067ZM25.2556 31.4135C18.4111 33.8017 14.4889 27.5146 13.1111 22.5826C10.8778 14.5626 13.6778 19.5723 14.2222 21.083C15.4 24.371 17.9889 32.3244 24.4444 29.9028C27.2556 28.8475 28.4889 25.7706 28.9 24.0378C29.5778 26.9592 28.8556 30.1694 25.2667 31.4135H25.2556Z" fill="var(--fill-0, white)"/>
</g>
</svg>
