<svg preserveAspectRatio="none" width="100%" height="100%" overflow="visible" style="display: block;" viewBox="0 0 40 40" fill="none" xmlns="http://www.w3.org/2000/svg">
<g id="Icon">
<path id="Vector" d="M40 20C40 31.0444 31.0444 40 20 40C8.95556 40 0 31.0444 0 20C0 8.95556 8.95556 0 20 0C31.0444 0 40 8.95556 40 20Z" fill="var(--fill-0, #B6A431)"/>
<path id="Vector_2" d="M29.1667 13.7778C28.1556 15.3778 26.3444 16.0556 25.1222 15.2889C23.9 14.5222 23.7222 12.5889 24.7333 10.9889C25.7444 9.38889 27.5556 8.71111 28.7778 9.47778C30 10.2444 30.1667 12.1778 29.1667 13.7778ZM24.3667 21.9111C23.0111 23.5444 20.9111 24.0222 19.6778 23C18.4333 21.9667 18.5222 19.8111 19.8778 18.1889C21.2333 16.5556 23.3333 16.0778 24.5667 17.1C25.8111 18.1333 25.7222 20.2889 24.3667 21.9111ZM16.5222 29.2222C14.9556 30.5222 12.8889 30.6111 11.8889 29.4222C10.9 28.2333 11.3556 26.2111 12.9222 24.9111C14.4889 23.6111 16.5556 23.5222 17.5556 24.7111C18.5444 25.9 18.0889 27.9222 16.5222 29.2222ZM29.9333 6.11111C29.8222 5.76667 29.4444 5.77778 29.2333 5.96667C29.1778 6.01111 29.1222 6.06667 29.0889 6.15556C28.3333 8.24444 25.7333 7.86667 24.2667 9.14444C23.6 9.72222 23.1667 10.5 22.9 11.3444C22.7 11.9667 22.7556 12.5889 22.6111 13.2C22.2889 14.5556 21.8556 14.8444 20.6556 15.2778C19.8 15.5889 18.9111 16.0556 18.4222 16.8444C17.5556 18.2667 17.4667 19.8667 16.2778 21.1667C14.9778 22.5889 13.2222 22.8556 11.7111 23.8889C10.8444 24.4889 10.1444 25.3222 9.68889 26.2778C9.13333 27.4444 9.36667 30.5333 8.05556 31.0222C7.78889 31.1222 7.73333 31.3889 7.82222 31.5889C7.85556 31.8 8.01111 31.9778 8.27778 31.9667C11.2667 31.7333 15.8667 32.2222 18.2222 29.9333C19.4667 28.7222 19.8222 27 21.3778 26.0333C22.8444 25.1222 24.1667 25.0222 25.5111 23.8333C26.7667 22.7111 27.1667 21.7444 27.6444 20.1889C27.8889 19.4111 27.9 17.8333 28.2778 17.1111C28.7444 16.2444 29.5667 15.9333 30.1333 15.2C31.9889 12.8222 30.7222 8.65556 29.9111 6.11111" fill="var(--fill-0, white)"/>
</g>
</svg>
