<svg preserveAspectRatio="none" width="100%" height="100%" overflow="visible" style="display: block;" viewBox="0 0 40 40" fill="none" xmlns="http://www.w3.org/2000/svg">
<g id="Icon">
<path id="Vector" d="M40 20C40 31.0444 31.0444 40 20 40C8.95556 40 0 31.0444 0 20C0 8.95556 8.95556 0 20 0C31.0444 0 40 8.95556 40 20Z" fill="var(--fill-0, #754C29)"/>
<path id="Vector_2" d="M25.5778 22.5333C23.9778 20.3 22.1556 18.2667 20.1 16.4333C18.7 15.1778 17.2111 14.0222 15.5778 13.0667C14.5667 12.4778 13.7556 12.5556 12.9111 13.2333C11.5222 14.3444 10.5444 15.7444 9.84444 17.3667C9.21111 18.8556 8.83333 20.4111 8.62222 22C8.37778 23.8333 8.31111 25.6778 8.77778 27.5C8.93333 27.9556 9.06667 28.4111 9.24444 28.8556C9.74444 30.0556 10.7444 30.7 11.9222 31.0556C14.2667 31.7556 16.6556 31.6667 19.0333 31.2778C20.3444 31.0667 21.6111 30.6778 22.8111 30.1222C24.2222 29.4667 25.5333 28.6556 26.5222 27.4222C27.0667 26.7444 27.3 25.9667 27 25.1222C26.6667 24.1778 26.1444 23.3333 25.5667 22.5333H25.5778Z" fill="var(--fill-0, white)"/>
<path id="Vector_3" d="M28.4889 12.3333C28.4 12.2111 28.2889 12.1444 28.4333 11.9889C29.2333 11.1667 30.1444 10.6111 31.3444 10.7556C31.7222 10.8 32.1 10.8222 32.4889 10.8556C32.4889 10.2222 32.4222 9.65556 32.1222 9.13333C31.8 8.56667 31.5667 8.41111 30.9333 8.51111C30.6 8.56667 30.2556 8.66667 29.9333 8.8C28.7889 9.3 27.8222 10.0444 27.1778 10.9667C26.5444 10.6333 25.9333 10.2778 25.3 9.98889C23.5333 9.16667 21.6 8.67778 19.6444 8.78889C17.9889 8.87778 16.1556 9.45556 15.4333 10C15.0444 10.2889 14.6778 10.7 14.6667 11.1556C15.8111 10.6556 16.7778 11.0778 17.7 11.6778C18.4889 12.1889 19.2444 12.7333 20 13.2889C21.5778 14.4667 23.0222 15.8 24.3667 17.2333C25.9 18.8778 27.3778 20.5667 28.4889 22.5333C29.0333 23.5 29.4778 24.5111 29.1 25.7C29.6222 25.6778 29.9444 25.3667 30.1667 25.0222C30.3889 24.6778 30.8778 23.5111 31.1222 22.7222C31.9222 19.9556 31.6778 17.2111 30.1667 14.5333C29.7 13.7444 29.0556 13.0667 28.4778 12.3556L28.4889 12.3333Z" fill="var(--fill-0, white)"/>
</g>
</svg>
