<svg preserveAspectRatio="none" width="100%" height="100%" overflow="visible" style="display: block;" viewBox="0 0 40 40" fill="none" xmlns="http://www.w3.org/2000/svg">
<g id="Icon">
<path id="Vector" d="M40 20C40 31.0444 31.0444 40 20 40C8.95556 40 0 31.0444 0 20C0 8.95556 8.95556 0 20 0C31.0444 0 40 8.95556 40 20Z" fill="var(--fill-0, #00A651)"/>
<path id="Vector_2" d="M17.4889 15.0444C17.4889 15.0444 20.6556 17.9222 23.5778 23.5889C25 26.3444 25.8778 29.2444 26.4 31.5C27.0889 29.6778 29.3667 22.8 26.5778 17.4778C23.3333 11.2778 14.4556 9.53333 14.4556 9.53333C14.4556 9.53333 14.6 10.7 14.1333 12.4889C13.3667 15.4667 12.0667 20.1556 14.0889 24.0333C16.7889 29.1889 23.3889 31.2667 25.5333 31.8222C24.6333 29.7778 23.4 27.1222 22 24.4222C19.0667 18.7667 17.4778 15.0667 17.4778 15.0667" fill="var(--fill-0, white)"/>
</g>
</svg>
