<svg preserveAspectRatio="none" width="100%" height="100%" overflow="visible" style="display: block;" viewBox="0 0 40 40" fill="none" xmlns="http://www.w3.org/2000/svg">
<g id="Icon">
<path id="Vector" d="M40 20C40 31.0444 31.0444 40 20 40C8.95556 40 0 31.0444 0 20C0 8.95556 8.95556 0 20 0C31.0444 0 40 8.95556 40 20Z" fill="var(--fill-0, #F7941D)"/>
<path id="Vector_2" d="M20.6333 20.7444C21.9333 20.6889 23.0556 20.4444 24 20.0333C26.6 18.9 27.8667 16.5111 27.7444 13.3222C27.7444 13.0333 27.7111 12.7333 27.6778 12.4333C27.5333 12.4333 27.3889 12.4222 27.2444 12.4222C24.3111 12.4222 21.7111 14.5 20.7667 17.0778C20.5111 17.7778 20.3778 18.5222 20.3889 19.2667C20.3889 19.7667 20.4778 20.2667 20.6333 20.7556V20.7444Z" fill="var(--fill-0, white)"/>
<path id="Vector_3" d="M27.7222 27C27.7222 27 27.7222 26.9333 27.7222 26.8889C27.7222 26.8889 27.7222 26.8222 27.7222 26.7778C27.1222 26.8778 26.5667 26.9222 26.0222 27.0444C24.9556 27.2889 23.9556 27.6444 23.1 28.2444C22.5889 28.6 22.1222 29.0444 21.7333 29.6111C21.1778 30.4222 20.8556 31.2889 20.6889 32.1778C20.5667 32.8444 20.5222 33.5444 20.5444 34.2444C20.5444 34.4778 20.5556 34.7111 20.5778 34.9444C20.5778 34.9444 20.5778 34.9667 20.5889 34.9667C20.6111 35.0333 20.7222 35.1222 20.8222 35.1778C20.8556 35.2 20.9 35.2 20.9222 35.2C21.3111 35.1778 21.7 35.1222 22.0778 35.0444C22.2556 35.0111 22.4222 34.9667 22.6 34.9222C23.6889 34.6444 24.7111 34.2222 25.5444 33.5333C25.9889 33.1667 26.3889 32.7444 26.7111 32.2111C27.4667 30.9889 27.7556 29.6667 27.7778 28.2333C27.7778 27.8222 27.7667 27.4111 27.7222 26.9889V27Z" fill="var(--fill-0, white)"/>
<path id="Vector_4" d="M19.9 4.71111C16.1 8.38889 16.3222 12.3111 19.9 15.6778C23.4889 12.3556 23.7 8.34444 19.9 4.71111Z" fill="var(--fill-0, white)"/>
<path id="Vector_5" d="M19.1111 20.8444C19.7 15.6556 16.9556 12.7222 12.1556 12.4667C12.1444 12.4667 12.1333 12.4667 12.1222 12.4667C12.0889 12.4667 12.0556 12.4667 12.0111 12.4667C11.8444 14.7444 12.0333 16.9556 13.7111 18.7C15.1667 20.2111 17.0889 20.6889 19.1111 20.8556V20.8444Z" fill="var(--fill-0, white)"/>
<path id="Vector_6" d="M12.0667 26.8889C11.9444 27.4111 11.9 27.9444 11.9111 28.4556C11.9667 31.8222 14.5333 34.8111 17.7333 35.2222C17.9778 35.2556 18.2333 35.2667 18.4778 35.2667C18.6778 35.2667 18.8889 35.2667 19.0889 35.2333C19.7 30.4556 17.3444 27.2333 12.0667 26.8778V26.8889Z" fill="var(--fill-0, white)"/>
<path id="Vector_7" d="M12.1556 19.6667C12.1556 19.6667 12.0889 19.6667 12.0556 19.6667C11.5111 25.0222 14.3667 27.7778 19.1222 27.9889C19.7556 23.2778 17.3111 19.8889 12.1778 19.6778L12.1556 19.6667Z" fill="var(--fill-0, white)"/>
<path id="Vector_8" d="M21.1111 27.9444C24.7556 27.9444 27.9333 24.5556 27.8889 21.0667C27.8889 20.5667 27.8111 20.0667 27.6667 19.5778C25.5778 19.6667 23.8556 20.2667 22.6222 21.3556C21.2222 22.6 20.4667 24.4778 20.5333 26.9556C20.5333 27.2667 20.5667 27.5889 20.6 27.9111C20.7667 27.9222 20.9333 27.9333 21.1 27.9333L21.1111 27.9444Z" fill="var(--fill-0, white)"/>
</g>
</svg>
